<svg version="1.1" xmlns="http://www.w3.org/2000/svg" xmlns:xlink="http://www.w3.org/1999/xlink" width="1360" height="975"><style xmlns="http://www.w3.org/1999/xhtml"></style><defs/><g transform="translate(0,0)"><g><rect fill="#FFFFFF" stroke="none" x="0" y="0" width="1360" height="975"/></g><g transform="translate(0,0) matrix(1,0,0,1,-16.971000000000004,71.5)"><g><g transform="translate(0,0) scale(4.3,5.7)"><g><path fill="#d9ead3" stroke="none" d="M 100 50 A 50 50 0 1 0 99.99997500000208 50.04999999166668 Z"/><g transform="scale(0.23255813953488372,0.17543859649122806)"><path fill="none" stroke="rgb(0,0,0)" d="M 215 0 M 215 0 C 333.74121049999997 0 430 127.5988605 430 285 C 430 442.4011395 333.74121049999997 570 215 570 C 96.2587895 570 0 442.4011395 0 285 C 0 127.5988605 96.2587895 0 215 0 Z" stroke-opacity="0" stroke-miterlimit="10" stroke-width="0"/></g></g></g></g></g><g transform="translate(0,0) matrix(1,0,0,1,520,85)"><g><g transform="translate(0,0) scale(8.2,8.7)"><g><path fill="#d9d2e9" stroke="none" d="M 100 50 A 50 50 0 1 0 99.99997500000208 50.04999999166668 Z"/><g transform="scale(0.12195121951219513,0.1149425287356322)"><path fill="none" stroke="rgb(0,0,0)" d="M 409.99999999999994 0 M 409.99999999999994 0 C 636.4367269999999 0 819.9999999999999 194.75615549999998 819.9999999999999 434.99999999999994 C 819.9999999999999 675.2438444999999 636.4367269999999 869.9999999999999 409.99999999999994 869.9999999999999 C 183.56327299999998 869.9999999999999 0 675.2438444999999 0 434.99999999999994 C 0 194.75615549999998 183.56327299999998 0 409.99999999999994 0 Z" stroke-opacity="0" stroke-miterlimit="10" stroke-width="0"/></g></g></g></g></g><g transform="translate(0,0) matrix(1,0,0,1,300,10)"><g><g transform="translate(0,0) scale(6.3,1.8)"><g><path fill="#e2e2e2" stroke="none" d="M 100 50 A 50 50 0 1 0 99.99997500000208 50.04999999166668 Z"/><g transform="scale(0.15873015873015872,0.5555555555555556)"><path fill="none" stroke="rgb(0,0,0)" d="M 315 0 M 315 0 C 488.9696805 0 630 40.294377000000004 630 90 C 630 139.705623 488.9696805 180 315 180 C 141.03031950000002 180 0 139.705623 0 90 C 0 40.294377000000004 141.03031950000002 0 315 0 Z" stroke-opacity="0" stroke-miterlimit="10" stroke-width="0"/></g></g></g></g></g><g transform="translate(0,0) matrix(1,0,0,1,890,90)"><g><g transform="translate(0,0) scale(1.010869891301087,1.0161659046374918) translate(1.221245e-15,-0.001)"><g><g><path fill="#02709F" stroke="#FFFFFF" d="M 99.654 19.098 C 99.654 29.837 77.272 38.542 49.654 38.542 C 22.037 38.542 -0.343 29.837 -0.343 19.098 L -0.343 47.581 C -0.343 58.319 22.04 67.022 49.657 67.022 C 77.274 67.022 99.657 58.319 99.657 47.581 L 99.657 19.098 L 99.654 19.098 Z" stroke-miterlimit="10" stroke-width="1.0874"/></g><g><path fill="#02709F" stroke="#FFFFFF" d="M 49.656 -0.342 C 77.27024 -0.342 99.656 8.36248 99.656 19.1 C 99.656 29.83752 77.27024 38.542 49.656 38.542 C 22.04176 38.542 -0.344 29.83752 -0.344 19.1 C -0.344 8.36248 22.04176 -0.342 49.656 -0.342 Z" stroke-miterlimit="10" stroke-width="1.0874"/></g><g><path fill="#FFFFFF" stroke="rgb(0,0,0)" d="M 38.239 11.495 L 42.366 17.689 L 26.756 21.296 L 30.168 18.456 L 6.041 14.333 L 12.092 9.796 L 35.374 13.739 L 38.239 11.495 Z" stroke-opacity="0" stroke-miterlimit="10"/></g><g><path fill="#FFFFFF" stroke="rgb(0,0,0)" d="M 60.204 26.513 L 57.387 20.126 L 71.468 17.312 L 69.026 19.502 L 92.494 23.511 L 86.861 28.016 L 63.535 23.633 L 60.204 26.513 Z" stroke-opacity="0" stroke-miterlimit="10"/></g><g><path fill="#FFFFFF" stroke="rgb(0,0,0)" d="M 52.505 8.113 L 68.275 3.796 L 68.463 10.555 L 64.521 9.804 L 56.822 16.189 L 49.476 15.116 L 57.424 8.872 L 52.505 8.113 Z" stroke-opacity="0" stroke-miterlimit="10"/></g><g><path fill="#FFFFFF" stroke="rgb(0,0,0)" d="M 45.743 32.335 L 30.728 35.149 L 30.165 28.204 L 34.482 29.142 L 42.748 22.082 L 50.066 23.32 L 41.24 31.016 L 45.743 32.335 Z" stroke-opacity="0" stroke-miterlimit="10"/></g></g></g></g></g><g transform="translate(0,0) matrix(1,0,0,1,240,90)"><g><g transform="translate(0,0) scale(1.010869891301087,1.0161659046374918) translate(1.221245e-15,-0.001)"><g><g><path fill="#02709F" stroke="#FFFFFF" d="M 99.654 19.098 C 99.654 29.837 77.272 38.542 49.654 38.542 C 22.037 38.542 -0.343 29.837 -0.343 19.098 L -0.343 47.581 C -0.343 58.319 22.04 67.022 49.657 67.022 C 77.274 67.022 99.657 58.319 99.657 47.581 L 99.657 19.098 L 99.654 19.098 Z" stroke-miterlimit="10" stroke-width="1.0874"/></g><g><path fill="#02709F" stroke="#FFFFFF" d="M 49.656 -0.342 C 77.27024 -0.342 99.656 8.36248 99.656 19.1 C 99.656 29.83752 77.27024 38.542 49.656 38.542 C 22.04176 38.542 -0.344 29.83752 -0.344 19.1 C -0.344 8.36248 22.04176 -0.342 49.656 -0.342 Z" stroke-miterlimit="10" stroke-width="1.0874"/></g><g><path fill="#FFFFFF" stroke="rgb(0,0,0)" d="M 38.239 11.495 L 42.366 17.689 L 26.756 21.296 L 30.168 18.456 L 6.041 14.333 L 12.092 9.796 L 35.374 13.739 L 38.239 11.495 Z" stroke-opacity="0" stroke-miterlimit="10"/></g><g><path fill="#FFFFFF" stroke="rgb(0,0,0)" d="M 60.204 26.513 L 57.387 20.126 L 71.468 17.312 L 69.026 19.502 L 92.494 23.511 L 86.861 28.016 L 63.535 23.633 L 60.204 26.513 Z" stroke-opacity="0" stroke-miterlimit="10"/></g><g><path fill="#FFFFFF" stroke="rgb(0,0,0)" d="M 52.505 8.113 L 68.275 3.796 L 68.463 10.555 L 64.521 9.804 L 56.822 16.189 L 49.476 15.116 L 57.424 8.872 L 52.505 8.113 Z" stroke-opacity="0" stroke-miterlimit="10"/></g><g><path fill="#FFFFFF" stroke="rgb(0,0,0)" d="M 45.743 32.335 L 30.728 35.149 L 30.165 28.204 L 34.482 29.142 L 42.748 22.082 L 50.066 23.32 L 41.24 31.016 L 45.743 32.335 Z" stroke-opacity="0" stroke-miterlimit="10"/></g></g></g></g></g><g transform="matrix(1,0,0,1,246,160)"><g transform="translate(91,0) matrix(1,0,0,1,0,0) translate(-91,0)"><g/></g><g transform="translate(91,0) matrix(1,0,0,1,0,0) translate(-91,0)"><g/></g><g transform="translate(91,0) matrix(1,0,0,1,0,0) translate(-91,0)"><g/></g><g transform="translate(91,0) matrix(1,0,0,1,0,0) translate(-91,0)"><g/><text fill="rgb(0, 0, 0)" stroke="none" font-family="&quot;Arial&quot;" font-size="12px" font-style="normal" font-weight="normal" text-decoration="" line-height="14px" x="3" y="11">BR1_ROUTER</text></g><g transform="translate(91,0) matrix(1,0,0,1,0,0) translate(-91,0)"><g/></g></g><g transform="translate(0,0) matrix(1,0,0,1,530,90)"><g><g transform="translate(0,0) scale(1.0199949000254998,1.0344857898248503) translate(0.00001348378,-0.001498589)"><g><g><path fill="#FFFFFF" stroke="#02709F" d="M 33.84 5.912 C 16.263 2.403 6.986 11.405 8.451 19.186 L 8.57 19.61 C -5.128 21.942 -1.537 38.106 5.033 38.106 L 5.679 38.085 C 4.026 45.68 20.032 53.41 28.958 49.548 L 29.531 48.92 C 32.713 55.752 44.02 56.893 55.201 57.177 C 64.89 57.425 70.546 56.658 74.702 52.411 L 75.341 52.599 C 90.852 53.845 97.915 43.133 94.526 35.442 L 95.36 35.207 C 100.648 33.808 101.258 21.602 92.187 19.797 L 92.361 19.325 C 96.299 11.385 87.011 3.896 74.124 5.303 L 73.23 4.837 C 64.003 -3.517 37.449 -2.157 34.373 6.108 L 33.84 5.912 Z" stroke-miterlimit="10" stroke-width="2"/></g></g></g></g></g><g transform="matrix(1,0,0,1,564,152)"><g transform="translate(37,0) matrix(1,0,0,1,0,0) translate(-37,0)"><g/></g><g transform="translate(37,0) matrix(1,0,0,1,0,0) translate(-37,0)"><g/></g><g transform="translate(37,0) matrix(1,0,0,1,0,0) translate(-37,0)"><g/></g><g transform="translate(37,0) matrix(1,0,0,1,0,0) translate(-37,0)"><g/><text fill="rgb(0, 0, 0)" stroke="none" font-family="&quot;Arial&quot;" font-size="12px" font-style="normal" font-weight="normal" text-decoration="" line-height="14px" x="3" y="11">WAN</text></g><g transform="translate(37,0) matrix(1,0,0,1,0,0) translate(-37,0)"><g/></g></g><g transform="matrix(1,0,0,1,628,116.009)"><g transform="translate(0,0)"><g transform="translate(-637,-123) translate(9,6.991) matrix(1,0,0,1,0,0)"><g><path fill="none" stroke="#000000" d="M 632 120.009 L 708.0114897403894 120.009 Q 718.0114897403894 120.009 728.0114897403894 120.009 L 794.0229794807789 120.009 Q 804.0229794807789 120.009 814.0229794807789 120.009 L 890.0344692211683 120.009" stroke-miterlimit="10"/></g></g></g></g><g transform="matrix(1,0,0,1,336.5409275788802,115.50899999999999)"><g transform="translate(0,0)"><g transform="translate(-344,-128) translate(7.459072421119799,12.491000000000014) matrix(1,0,0,1,0,0)"><g><path fill="none" stroke="#000000" d="M 341.0409275788802 120.00899999999999 L 394.0272850525868 120.00899999999999 Q 404.0272850525868 120.00899999999999 414.0272850525868 120.00899999999999 L 457.0136425262934 120.009 Q 467.0136425262934 120.009 477.0136425262934 120.009 L 530 120.009" stroke-miterlimit="10" stroke-width="2"/></g></g></g></g><g transform="translate(0,0) matrix(1,0,0,1,890,300)"><g><g transform="translate(0,0) scale(1.036784056893746,1.02545)"><g><g><g><g><g><path fill="#02709F" stroke="#FFFFFF" d="M -1.433 11.018 L 86.958 11.018 Q 86.958 11.018 86.958 11.018 L 86.958 99.331 Q 86.958 99.331 86.958 99.331 L -1.433 99.331 Q -1.433 99.331 -1.433 99.331 L -1.433 11.018 Q -1.433 11.018 -1.433 11.018 Z" stroke-miterlimit="10" stroke-width="1.3239"/></g><g><path fill="#02709F" stroke="#FFFFFF" d="M 98.121 88.275 L 98.121 -0.038 L 86.958 11.018 L 86.958 99.331 L 98.121 88.275 Z" stroke-miterlimit="10" stroke-width="1.3239"/></g></g></g><g><g><path fill="#02709F" stroke="#FFFFFF" d="M 13.923 -0.669 L -1.433 10.385 L 86.958 10.385 L 98.121 -0.669 L 13.923 -0.669 Z" stroke-miterlimit="10" stroke-width="1.3239"/></g><g><path fill="rgb(0,0,0)" stroke="#FFFFFF" d="M 86.958 11.018 L -1.433 11.018" fill-opacity="0" stroke-miterlimit="10" stroke-width="1.3239"/></g><g><path fill="rgb(0,0,0)" stroke="#FFFFFF" d="M 86.958 11.018 L 98.121 -0.038" fill-opacity="0" stroke-miterlimit="10" stroke-width="1.3239"/></g><g><path fill="rgb(0,0,0)" stroke="#FFFFFF" d="M 86.958 11.018 L 86.958 99.331" fill-opacity="0" stroke-miterlimit="10" stroke-width="1.3239"/></g><g><path fill="rgb(0,0,0)" stroke="#FFFFFF" d="M 86.958 11.018 L -1.433 11.018" fill-opacity="0" stroke-miterlimit="10" stroke-width="1.3239"/></g><g><path fill="rgb(0,0,0)" stroke="#FFFFFF" d="M 86.958 11.018 L 98.121 -0.038" fill-opacity="0" stroke-miterlimit="10" stroke-width="1.3239"/></g></g></g><g><g><path fill="#FFFFFF" stroke="rgb(0,0,0)" d="M 44.676 42.334 L 44.676 23.229 L 47.918 23.229 L 43.135 16.015 L 38.354 23.229 L 41.593 23.229 L 41.593 42.334 L 44.676 42.334 Z" stroke-opacity="0" stroke-miterlimit="10"/></g><g><path fill="#FFFFFF" stroke="rgb(0,0,0)" d="M 34.927 45.094 L 21.418 31.584 L 23.71 29.292 L 15.228 27.57 L 16.945 36.057 L 19.236 33.763 L 32.746 47.273 L 34.927 45.094 Z" stroke-opacity="0" stroke-miterlimit="10"/></g><g><path fill="#FFFFFF" stroke="rgb(0,0,0)" d="M 29.986 53.941 L 10.878 53.941 L 10.878 50.698 L 3.667 55.482 L 10.878 60.262 L 10.878 57.024 L 29.986 57.024 L 29.986 53.941 Z" stroke-opacity="0" stroke-miterlimit="10"/></g><g><path fill="#FFFFFF" stroke="rgb(0,0,0)" d="M 32.746 63.685 L 19.236 77.195 L 16.945 74.906 L 15.228 83.388 L 23.71 81.671 L 21.418 79.376 L 34.927 65.866 L 32.746 63.685 Z" stroke-opacity="0" stroke-miterlimit="10"/></g><g><path fill="#FFFFFF" stroke="rgb(0,0,0)" d="M 41.593 68.626 L 41.593 87.735 L 38.354 87.735 L 43.135 94.948 L 47.918 87.735 L 44.676 87.735 L 44.676 68.626 L 41.593 68.626 Z" stroke-opacity="0" stroke-miterlimit="10"/></g><g><path fill="#FFFFFF" stroke="rgb(0,0,0)" d="M 51.341 65.866 L 64.85 79.376 L 62.558 81.671 L 71.043 83.388 L 69.323 74.906 L 67.035 77.195 L 53.525 63.685 L 51.341 65.866 Z" stroke-opacity="0" stroke-miterlimit="10"/></g><g><path fill="#FFFFFF" stroke="rgb(0,0,0)" d="M 56.285 57.024 L 75.39 57.024 L 75.39 60.262 L 82.604 55.482 L 75.39 50.698 L 75.39 53.941 L 56.285 53.941 L 56.285 57.024 Z" stroke-opacity="0" stroke-miterlimit="10"/></g><g><path fill="#FFFFFF" stroke="rgb(0,0,0)" d="M 53.525 47.273 L 67.035 33.763 L 69.323 36.057 L 71.043 27.57 L 62.558 29.292 L 64.85 31.584 L 51.341 45.094 L 53.525 47.273 Z" stroke-opacity="0" stroke-miterlimit="10"/></g></g><g><path fill="#FFFFFF" stroke="#0082BE" d="M 63.355999999999995 55.328 A 19.928 19.928 0 1 0 63.35599003600083 55.34792799667868 Z" stroke-miterlimit="10" stroke-width="1.3239"/></g></g></g></g></g><g transform="matrix(1,0,0,1,913,405)"><g transform="translate(60,0) matrix(1,0,0,1,0,0) translate(-60,0)"><g/></g><g transform="translate(60,0) matrix(1,0,0,1,0,0) translate(-60,0)"><g/></g><g transform="translate(60,0) matrix(1,0,0,1,0,0) translate(-60,0)"><g/></g><g transform="translate(60,0) matrix(1,0,0,1,0,0) translate(-60,0)"><g/><text fill="rgb(0, 0, 0)" stroke="none" font-family="&quot;Arial&quot;" font-size="12px" font-style="normal" font-weight="normal" text-decoration="" line-height="14px" x="3" y="11">HQ_SW1</text></g><g transform="translate(60,0) matrix(1,0,0,1,0,0) translate(-60,0)"><g/></g></g><g transform="matrix(1,0,0,1,936.044,153.953)"><g transform="translate(0,0)"><g transform="translate(-944,-161) translate(7.956000000000017,7.046999999999997) matrix(1,0,0,1,0,0)"><g><path fill="none" stroke="#000000" d="M 940.544 158.453 L 940.544 205.63666631814684 L 940.544 252.82033263629364 L 940.544 300.0039989544405" stroke-miterlimit="10" stroke-width="2"/></g></g></g></g><g transform="matrix(1,0,0,1,932,158)"><g transform="translate(181,0) matrix(1,0,0,1,0,0) translate(-181,0)"><g/></g><g transform="translate(181,0) matrix(1,0,0,1,0,0) translate(-181,0)"><g/></g><g transform="translate(181,0) matrix(1,0,0,1,0,0) translate(-181,0)"><g/></g><g transform="translate(181,0) matrix(1,0,0,1,0,0) translate(-181,0)"><g/><text fill="rgb(0, 0, 0)" stroke="none" font-family="&quot;Arial&quot;" font-size="12px" font-style="normal" font-weight="normal" text-decoration="" line-height="14px" x="35" y="11">HQ_ROUTER</text></g><g transform="translate(181,0) matrix(1,0,0,1,0,0) translate(-181,0)"><g/></g></g><g transform="translate(0,0) matrix(1,0,0,1,760,520)"><g><g transform="translate(0,0) scale(1.022120221202212,1.0409472725432647)"><g><g><path fill="#02709F" stroke="#FFFFFF" d="M -0.42 23.862 L 74.37 23.862 Q 74.37 23.862 74.37 23.862 L 74.37 48.142 Q 74.37 48.142 74.37 48.142 L -0.42 48.142 Q -0.42 48.142 -0.42 48.142 L -0.42 23.862 Q -0.42 23.862 -0.42 23.862 Z" stroke-miterlimit="10" stroke-width="0.8376"/></g><g><path fill="#02709F" stroke="#FFFFFF" d="M -0.618 23.984 L 29.594 -0.499 L 99.381 -0.499 L 74.299 23.984 L -0.618 23.984 Z" stroke-miterlimit="10" stroke-width="0.8376"/></g><g><path fill="#02709F" stroke="#FFFFFF" d="M 74.328 48.906 L 99.315 21.914 L 99.328 -0.458 L 74.328 23.949 L 74.328 48.906 Z" stroke-miterlimit="10" stroke-width="0.8376"/></g><g><path fill="#FFFFFF" stroke="rgb(0,0,0)" d="M 43.223 17.615 L 41.772 18.804 L 23.118 18.804 L 21.259 20.663 L 16.204 18.461 L 26.371 15.555 L 24.572 17.615 L 43.223 17.615 Z" stroke-opacity="0" stroke-miterlimit="10"/></g><g><path fill="#FFFFFF" stroke="rgb(0,0,0)" d="M 57.879 8.453 L 56.428 9.643 L 37.776 9.643 L 35.916 11.502 L 30.862 9.3 L 41.028 6.394 L 39.229 8.453 L 57.879 8.453 Z" stroke-opacity="0" stroke-miterlimit="10"/></g><g><path fill="#FFFFFF" stroke="rgb(0,0,0)" d="M 46.516 14.377 L 47.963 13.19 L 66.619 13.19 L 68.481 11.328 L 73.535 13.532 L 63.369 16.439 L 65.168 14.377 L 46.516 14.377 Z" stroke-opacity="0" stroke-miterlimit="10"/></g><g><path fill="#FFFFFF" stroke="rgb(0,0,0)" d="M 56.201 5.217 L 57.647 4.029 L 76.303 4.029 L 78.164 2.168 L 83.219 4.372 L 73.055 7.278 L 74.852 5.217 L 56.201 5.217 Z" stroke-opacity="0" stroke-miterlimit="10"/></g></g></g></g></g><g transform="matrix(1,0,0,1,782,573)"><g transform="translate(60,0) matrix(1,0,0,1,0,0) translate(-60,0)"><g/></g><g transform="translate(60,0) matrix(1,0,0,1,0,0) translate(-60,0)"><g/></g><g transform="translate(60,0) matrix(1,0,0,1,0,0) translate(-60,0)"><g/></g><g transform="translate(60,0) matrix(1,0,0,1,0,0) translate(-60,0)"><g/><text fill="rgb(0, 0, 0)" stroke="none" font-family="&quot;Arial&quot;" font-size="12px" font-style="normal" font-weight="normal" text-decoration="" line-height="14px" x="3" y="11">HQ_SW2</text></g><g transform="translate(60,0) matrix(1,0,0,1,0,0) translate(-60,0)"><g/></g></g><g transform="matrix(1,0,0,1,806.6055,346.7725)"><g transform="translate(0,0)"><g transform="translate(-892,-353) translate(85.3945,6.2275000000000205) matrix(1,0,0,1,0,0)"><g><path fill="none" stroke="#000000" d="M 890 351.2725 L 811.1055 351.2725 L 811.1055 520" stroke-miterlimit="10" stroke-width="2"/></g></g></g></g><g transform="translate(0,0) matrix(1,0,0,1,1130,322.46950000000004)"><g><g transform="translate(0,0) scale(1.0221302213022132,1.0350366537300562)"><g><path fill="#02709F" stroke="#FFFFFF" d="M -0.619 23.944 L 29.605 -0.497 L 99.38 -0.497 L 74.365 23.944 L -0.619 23.944 Z" stroke-miterlimit="10" stroke-width="0.8379"/></g><g><path fill="#02709F" stroke="#FFFFFF" d="M 74.365 55.135 L 99.38 29.649 L 99.38 -0.453 L 74.365 23.944 L 74.365 55.135 Z" stroke-miterlimit="10" stroke-width="0.8379"/></g><g><path fill="#02709F" stroke="#FFFFFF" d="M -0.517 23.944 L 74.365 23.944 Q 74.365 23.944 74.365 23.944 L 74.365 55.159 Q 74.365 55.159 74.365 55.159 L -0.517 55.159 Q -0.517 55.159 -0.517 55.159 L -0.517 23.944 Q -0.517 23.944 -0.517 23.944 Z" stroke-miterlimit="10" stroke-width="0.8379"/></g><g><path fill="#FFFFFF" stroke="rgb(0,0,0)" d="M 22.11 15.063 L 31.449 14.15 L 30.103 18.04 L 27.263 16.674 L 17.037 21.061 L 14.538 20.374 L 24.471 16.061 L 22.11 15.063 Z" stroke-opacity="0" stroke-miterlimit="10"/></g><g><path fill="#FFFFFF" stroke="rgb(0,0,0)" d="M 62.041 15.215 L 53.914 13.82 L 54.292 18.094 L 57.003 16.78 L 64.359 20.495 L 66.777 19.84 L 59.666 16.219 L 62.041 15.215 Z" stroke-opacity="0" stroke-miterlimit="10"/></g><g><path fill="rgb(0,0,0)" stroke="#FFFFFF" d="M 70.146 40.428 C 70.146 40.428 65.162 53.239 59.173 40.389 C 53.189 27.551 48.194 40.368 48.194 40.368 C 48.194 40.368 43.217 53.18 37.231 40.339 C 31.249 27.495 26.284 40.419 26.284 40.419 C 26.284 40.419 21.316 53.237 15.325 40.388 C 9.343 27.548 4.375 40.351 4.375 40.351" fill-opacity="0" stroke-linecap="round" stroke-miterlimit="1" stroke-width="0.9426"/></g><g><path fill="rgb(0,0,0)" stroke="#FFFFFF" d="M 4.375 40.428 C 4.375 40.428 9.358 53.239 15.347 40.389 C 21.331 27.551 26.326 40.368 26.326 40.368 C 26.326 40.368 31.303 53.18 37.287 40.339 C 43.271 27.495 48.234 40.419 48.234 40.419 C 48.234 40.419 53.203 53.237 59.191 40.388 C 65.177 27.548 70.146 40.351 70.146 40.351" fill-opacity="0" stroke-linecap="round" stroke-miterlimit="1" stroke-width="1.8852"/></g><g><path fill="rgb(0,0,0)" stroke="#000000" d="M 71.296 40.432 C 71.296 40.432 66.314 53.239 60.323 40.389 C 54.341 27.551 49.346 40.368 49.346 40.368 C 49.346 40.368 44.369 53.184 38.385 40.339 C 32.401 27.495 27.436 40.421 27.436 40.421 C 27.436 40.421 22.467 53.237 16.477 40.388 C 10.495 27.552 5.528 40.359 5.528 40.359" fill-opacity="0" stroke-linecap="round" stroke-miterlimit="1" stroke-width="0.9426"/></g><g><path fill="rgb(0,0,0)" stroke="#000000" d="M 5.529 40.432 C 5.529 40.432 10.512 53.239 16.501 40.389 C 22.486 27.551 27.477 40.368 27.477 40.368 C 27.477 40.368 32.457 53.184 38.442 40.339 C 44.426 27.495 49.387 40.421 49.387 40.421 C 49.387 40.421 54.358 53.237 60.346 40.388 C 66.33 27.548 71.299 40.359 71.299 40.359" fill-opacity="0" stroke-linecap="round" stroke-miterlimit="1" stroke-width="1.8852"/></g><g><path fill="rgb(0,0,0)" stroke="#FFFFFF" d="M 70.146 40.428 C 70.146 40.428 65.162 53.239 59.173 40.389 C 53.189 27.551 48.194 40.368 48.194 40.368 C 48.194 40.368 43.217 53.18 37.231 40.339 C 31.249 27.495 26.284 40.419 26.284 40.419 C 26.284 40.419 21.316 53.237 15.325 40.388 C 9.343 27.548 4.375 40.351 4.375 40.351" fill-opacity="0" stroke-linecap="round" stroke-miterlimit="1" stroke-width="0.9426"/></g><g><path fill="rgb(0,0,0)" stroke="#FFFFFF" d="M 4.375 40.428 C 4.375 40.428 9.358 53.239 15.347 40.389 C 21.331 27.551 26.326 40.368 26.326 40.368 C 26.326 40.368 31.303 53.18 37.287 40.339 C 43.271 27.495 48.234 40.419 48.234 40.419 C 48.234 40.419 53.203 53.237 59.191 40.388 C 65.177 27.548 70.146 40.351 70.146 40.351" fill-opacity="0" stroke-linecap="round" stroke-miterlimit="1" stroke-width="1.8852"/></g><g><path fill="rgb(0,0,0)" stroke="#000000" d="M 71.296 40.432 C 71.296 40.432 66.314 53.239 60.323 40.389 C 54.341 27.551 49.346 40.368 49.346 40.368 C 49.346 40.368 44.369 53.184 38.385 40.339 C 32.401 27.495 27.436 40.421 27.436 40.421 C 27.436 40.421 22.467 53.237 16.477 40.388 C 10.495 27.552 5.528 40.359 5.528 40.359" fill-opacity="0" stroke-linecap="round" stroke-miterlimit="1" stroke-width="0.9426"/></g><g><path fill="rgb(0,0,0)" stroke="#000000" d="M 5.529 40.432 C 5.529 40.432 10.512 53.239 16.501 40.389 C 22.486 27.551 27.477 40.368 27.477 40.368 C 27.477 40.368 32.457 53.184 38.442 40.339 C 44.426 27.495 49.387 40.421 49.387 40.421 C 49.387 40.421 54.358 53.237 60.346 40.388 C 66.33 27.548 71.299 40.359 71.299 40.359" fill-opacity="0" stroke-linecap="round" stroke-miterlimit="1" stroke-width="1.8852"/></g><g><path fill="rgb(0,0,0)" stroke="#FFFFFF" d="M 70.146 40.428 C 70.146 40.428 65.162 53.239 59.173 40.389 C 53.189 27.551 48.194 40.368 48.194 40.368 C 48.194 40.368 43.217 53.18 37.231 40.339 C 31.249 27.495 26.284 40.419 26.284 40.419 C 26.284 40.419 21.316 53.237 15.325 40.388 C 9.343 27.548 4.375 40.351 4.375 40.351" fill-opacity="0" stroke-linecap="round" stroke-miterlimit="1" stroke-width="0.9426"/></g><g><path fill="rgb(0,0,0)" stroke="#FFFFFF" d="M 4.375 40.428 C 4.375 40.428 9.358 53.239 15.347 40.389 C 21.331 27.551 26.326 40.368 26.326 40.368 C 26.326 40.368 31.303 53.18 37.287 40.339 C 43.271 27.495 48.234 40.419 48.234 40.419 C 48.234 40.419 53.203 53.237 59.191 40.388 C 65.177 27.548 70.146 40.351 70.146 40.351" fill-opacity="0" stroke-linecap="round" stroke-miterlimit="1" stroke-width="1.8852"/></g><g><path fill="#FFFFFF" stroke="rgb(0,0,0)" d="M 47.878 5.616 L 43.832 5.352 L 57.039 1.96 L 62.814 6.47 L 58.546 6.242 L 57.707 6.204 L 50.587 11.282 L 40.914 11.34 L 48.511 5.664 L 47.878 5.616 Z" stroke-opacity="0" stroke-miterlimit="10"/></g><g><path fill="#FFFFFF" stroke="rgb(0,0,0)" d="M 39.644 17.848 L 36.845 17.795 L 44.218 13.209 L 44.683 17.844 L 41.701 17.86 L 42.167 17.879 L 38.423 21.958 L 35.673 21.944 L 39.433 17.862 L 39.644 17.848 Z" stroke-opacity="0" stroke-miterlimit="10"/></g></g></g></g><g transform="matrix(1,0,0,1,1145,382)"><g transform="translate(75,0) matrix(1,0,0,1,0,0) translate(-75,0)"><g/></g><g transform="translate(75,0) matrix(1,0,0,1,0,0) translate(-75,0)"><g/></g><g transform="translate(75,0) matrix(1,0,0,1,0,0) translate(-75,0)"><g/></g><g transform="translate(75,0) matrix(1,0,0,1,0,0) translate(-75,0)"><g/><text fill="rgb(0, 0, 0)" stroke="none" font-family="&quot;Arial&quot;" font-size="12px" font-style="normal" font-weight="normal" text-decoration="" line-height="14px" x="3" y="11">HQ_WLC01</text></g><g transform="translate(75,0) matrix(1,0,0,1,0,0) translate(-75,0)"><g/></g></g><g transform="matrix(1,0,0,1,988.716,346.7725)"><g transform="translate(0,0)"><g transform="translate(-998,-352) translate(9.283999999999992,5.2275000000000205) matrix(1,0,0,1,0,0)"><g><path fill="none" stroke="#000000" d="M 993.216 351.2725 L 1038.8106666666667 351.2725 L 1084.4053333333334 351.2725 L 1130 351.2725" stroke-miterlimit="10" stroke-width="2"/></g></g></g></g><g transform="translate(0,0) matrix(1,0,0,1,620,650)"><g><g transform="translate(0,0) scale(1.03029,1.0611168921262575)"><g><g><g><path fill="#02709F" stroke="#FFFFFF" d="M -1.088 15.045 L 20.4 -0.842 L 98.912 -0.842 L 83.286 15.045 L -1.088 15.045 Z" stroke-miterlimit="10" stroke-width="1.1173"/></g><g><path fill="#02709F" stroke="#FFFFFF" d="M 83.286 42.373 L 98.912 26.546 L 98.912 -0.792 L 83.286 15.045 L 83.286 42.373 Z" stroke-miterlimit="10" stroke-width="1.1173"/></g><g><path fill="#02709F" stroke="#FFFFFF" d="M -0.968 15.045 L 83.286 15.045 Q 83.286 15.045 83.286 15.045 L 83.286 42.403 Q 83.286 42.403 83.286 42.403 L -0.968 42.403 Q -0.968 42.403 -0.968 42.403 L -0.968 15.045 Q -0.968 15.045 -0.968 15.045 Z" stroke-miterlimit="10" stroke-width="1.1173"/></g></g><g><g><path fill="rgb(0,0,0)" stroke="#FFFFFF" d="M 76.587 28.931 C 76.587 28.931 71.12 42.985 64.546 28.887 C 57.98 14.801 52.502 28.86 52.502 28.86 C 52.502 28.86 47.041 42.92 40.471 28.83 C 33.907 14.741 28.463 28.918 28.463 28.918 C 28.463 28.918 23.01 42.982 16.437 28.888 C 9.87 14.799 4.423 28.843 4.423 28.843" fill-opacity="0" stroke-linecap="round" stroke-miterlimit="1" stroke-width="1.257"/></g><g><path fill="rgb(0,0,0)" stroke="#FFFFFF" d="M 4.429 28.931 C 4.429 28.931 9.896 42.985 16.469 28.887 C 23.036 14.801 28.514 28.86 28.514 28.86 C 28.514 28.86 33.975 42.92 40.538 28.83 C 47.107 14.741 52.554 28.918 52.554 28.918 C 52.554 28.918 58.004 42.982 64.578 28.888 C 71.141 14.8 76.592 28.844 76.592 28.844" fill-opacity="0" stroke-linecap="round" stroke-miterlimit="1" stroke-width="2.514"/></g></g><g><g><g><path fill="rgb(0,0,0)" stroke="#000000" d="M 77.853 28.931 C 77.853 28.931 72.386 42.985 65.812 28.887 C 59.246 14.801 53.768 28.86 53.768 28.86 C 53.768 28.86 48.307 42.924 41.737 28.83 C 35.173 14.741 29.729 28.918 29.729 28.918 C 29.729 28.918 24.276 42.982 17.703 28.888 C 11.141 14.805 5.695 28.855 5.695 28.855" fill-opacity="0" stroke-linecap="round" stroke-miterlimit="1" stroke-width="1.257"/></g><g><path fill="rgb(0,0,0)" stroke="#000000" d="M 5.694 28.931 C 5.694 28.931 11.161 42.985 17.734 28.887 C 24.299 14.801 29.779 28.86 29.779 28.86 C 29.779 28.86 35.239 42.924 41.803 28.83 C 48.373 14.741 53.819 28.918 53.819 28.918 C 53.819 28.918 59.267 42.982 65.844 28.888 C 72.406 14.8 77.857 28.85 77.857 28.85" fill-opacity="0" stroke-linecap="round" stroke-miterlimit="1" stroke-width="2.514"/></g></g><g><g><path fill="rgb(0,0,0)" stroke="#FFFFFF" d="M 76.587 28.931 C 76.587 28.931 71.12 42.985 64.546 28.887 C 57.98 14.801 52.502 28.86 52.502 28.86 C 52.502 28.86 47.041 42.92 40.471 28.83 C 33.907 14.741 28.463 28.918 28.463 28.918 C 28.463 28.918 23.01 42.982 16.437 28.888 C 9.87 14.799 4.423 28.843 4.423 28.843" fill-opacity="0" stroke-linecap="round" stroke-miterlimit="1" stroke-width="1.257"/></g><g><path fill="rgb(0,0,0)" stroke="#FFFFFF" d="M 4.429 28.931 C 4.429 28.931 9.896 42.985 16.469 28.887 C 23.036 14.801 28.514 28.86 28.514 28.86 C 28.514 28.86 33.975 42.92 40.538 28.83 C 47.107 14.741 52.554 28.918 52.554 28.918 C 52.554 28.918 58.004 42.982 64.578 28.888 C 71.141 14.8 76.592 28.844 76.592 28.844" fill-opacity="0" stroke-linecap="round" stroke-miterlimit="1" stroke-width="2.514"/></g></g></g><g><g><g><path fill="rgb(0,0,0)" stroke="#000000" d="M 77.853 28.931 C 77.853 28.931 72.386 42.985 65.812 28.887 C 59.246 14.801 53.768 28.86 53.768 28.86 C 53.768 28.86 48.307 42.924 41.737 28.83 C 35.173 14.741 29.729 28.918 29.729 28.918 C 29.729 28.918 24.276 42.982 17.703 28.888 C 11.141 14.805 5.695 28.855 5.695 28.855" fill-opacity="0" stroke-linecap="round" stroke-miterlimit="1" stroke-width="1.257"/></g><g><path fill="rgb(0,0,0)" stroke="#000000" d="M 5.694 28.931 C 5.694 28.931 11.161 42.985 17.734 28.887 C 24.299 14.801 29.779 28.86 29.779 28.86 C 29.779 28.86 35.239 42.924 41.803 28.83 C 48.373 14.741 53.819 28.918 53.819 28.918 C 53.819 28.918 59.267 42.982 65.844 28.888 C 72.406 14.8 77.857 28.85 77.857 28.85" fill-opacity="0" stroke-linecap="round" stroke-miterlimit="1" stroke-width="2.514"/></g></g><g><g><path fill="rgb(0,0,0)" stroke="#FFFFFF" d="M 76.587 28.931 C 76.587 28.931 71.12 42.985 64.546 28.887 C 57.98 14.801 52.502 28.86 52.502 28.86 C 52.502 28.86 47.041 42.92 40.471 28.83 C 33.907 14.741 28.463 28.918 28.463 28.918 C 28.463 28.918 23.01 42.982 16.437 28.888 C 9.87 14.799 4.423 28.843 4.423 28.843" fill-opacity="0" stroke-linecap="round" stroke-miterlimit="1" stroke-width="1.257"/></g><g><path fill="rgb(0,0,0)" stroke="#FFFFFF" d="M 4.429 28.931 C 4.429 28.931 9.896 42.985 16.469 28.887 C 23.036 14.801 28.514 28.86 28.514 28.86 C 28.514 28.86 33.975 42.92 40.538 28.83 C 47.107 14.741 52.554 28.918 52.554 28.918 C 52.554 28.918 58.004 42.982 64.578 28.888 C 71.141 14.8 76.592 28.844 76.592 28.844" fill-opacity="0" stroke-linecap="round" stroke-miterlimit="1" stroke-width="2.514"/></g></g></g></g></g></g></g><g transform="matrix(1,0,0,1,641,698)"><g transform="translate(64,0) matrix(1,0,0,1,0,0) translate(-64,0)"><g/></g><g transform="translate(64,0) matrix(1,0,0,1,0,0) translate(-64,0)"><g/></g><g transform="translate(64,0) matrix(1,0,0,1,0,0) translate(-64,0)"><g/></g><g transform="translate(64,0) matrix(1,0,0,1,0,0) translate(-64,0)"><g/><text fill="rgb(0, 0, 0)" stroke="none" font-family="&quot;Arial&quot;" font-size="12px" font-style="normal" font-weight="normal" text-decoration="" line-height="14px" x="3" y="11">HQ_AP01</text></g><g transform="translate(64,0) matrix(1,0,0,1,0,0) translate(-64,0)"><g/></g></g><g transform="translate(0,0) matrix(1,0,0,1,890.187,650)"><g><g transform="translate(0,0) scale(1.03029,1.0611168921262575)"><g><g><g><path fill="#02709F" stroke="#FFFFFF" d="M -1.088 15.045 L 20.4 -0.842 L 98.912 -0.842 L 83.286 15.045 L -1.088 15.045 Z" stroke-miterlimit="10" stroke-width="1.1173"/></g><g><path fill="#02709F" stroke="#FFFFFF" d="M 83.286 42.373 L 98.912 26.546 L 98.912 -0.792 L 83.286 15.045 L 83.286 42.373 Z" stroke-miterlimit="10" stroke-width="1.1173"/></g><g><path fill="#02709F" stroke="#FFFFFF" d="M -0.968 15.045 L 83.286 15.045 Q 83.286 15.045 83.286 15.045 L 83.286 42.403 Q 83.286 42.403 83.286 42.403 L -0.968 42.403 Q -0.968 42.403 -0.968 42.403 L -0.968 15.045 Q -0.968 15.045 -0.968 15.045 Z" stroke-miterlimit="10" stroke-width="1.1173"/></g></g><g><g><path fill="rgb(0,0,0)" stroke="#FFFFFF" d="M 76.587 28.931 C 76.587 28.931 71.12 42.985 64.546 28.887 C 57.98 14.801 52.502 28.86 52.502 28.86 C 52.502 28.86 47.041 42.92 40.471 28.83 C 33.907 14.741 28.463 28.918 28.463 28.918 C 28.463 28.918 23.01 42.982 16.437 28.888 C 9.87 14.799 4.423 28.843 4.423 28.843" fill-opacity="0" stroke-linecap="round" stroke-miterlimit="1" stroke-width="1.257"/></g><g><path fill="rgb(0,0,0)" stroke="#FFFFFF" d="M 4.429 28.931 C 4.429 28.931 9.896 42.985 16.469 28.887 C 23.036 14.801 28.514 28.86 28.514 28.86 C 28.514 28.86 33.975 42.92 40.538 28.83 C 47.107 14.741 52.554 28.918 52.554 28.918 C 52.554 28.918 58.004 42.982 64.578 28.888 C 71.141 14.8 76.592 28.844 76.592 28.844" fill-opacity="0" stroke-linecap="round" stroke-miterlimit="1" stroke-width="2.514"/></g></g><g><g><g><path fill="rgb(0,0,0)" stroke="#000000" d="M 77.853 28.931 C 77.853 28.931 72.386 42.985 65.812 28.887 C 59.246 14.801 53.768 28.86 53.768 28.86 C 53.768 28.86 48.307 42.924 41.737 28.83 C 35.173 14.741 29.729 28.918 29.729 28.918 C 29.729 28.918 24.276 42.982 17.703 28.888 C 11.141 14.805 5.695 28.855 5.695 28.855" fill-opacity="0" stroke-linecap="round" stroke-miterlimit="1" stroke-width="1.257"/></g><g><path fill="rgb(0,0,0)" stroke="#000000" d="M 5.694 28.931 C 5.694 28.931 11.161 42.985 17.734 28.887 C 24.299 14.801 29.779 28.86 29.779 28.86 C 29.779 28.86 35.239 42.924 41.803 28.83 C 48.373 14.741 53.819 28.918 53.819 28.918 C 53.819 28.918 59.267 42.982 65.844 28.888 C 72.406 14.8 77.857 28.85 77.857 28.85" fill-opacity="0" stroke-linecap="round" stroke-miterlimit="1" stroke-width="2.514"/></g></g><g><g><path fill="rgb(0,0,0)" stroke="#FFFFFF" d="M 76.587 28.931 C 76.587 28.931 71.12 42.985 64.546 28.887 C 57.98 14.801 52.502 28.86 52.502 28.86 C 52.502 28.86 47.041 42.92 40.471 28.83 C 33.907 14.741 28.463 28.918 28.463 28.918 C 28.463 28.918 23.01 42.982 16.437 28.888 C 9.87 14.799 4.423 28.843 4.423 28.843" fill-opacity="0" stroke-linecap="round" stroke-miterlimit="1" stroke-width="1.257"/></g><g><path fill="rgb(0,0,0)" stroke="#FFFFFF" d="M 4.429 28.931 C 4.429 28.931 9.896 42.985 16.469 28.887 C 23.036 14.801 28.514 28.86 28.514 28.86 C 28.514 28.86 33.975 42.92 40.538 28.83 C 47.107 14.741 52.554 28.918 52.554 28.918 C 52.554 28.918 58.004 42.982 64.578 28.888 C 71.141 14.8 76.592 28.844 76.592 28.844" fill-opacity="0" stroke-linecap="round" stroke-miterlimit="1" stroke-width="2.514"/></g></g></g><g><g><g><path fill="rgb(0,0,0)" stroke="#000000" d="M 77.853 28.931 C 77.853 28.931 72.386 42.985 65.812 28.887 C 59.246 14.801 53.768 28.86 53.768 28.86 C 53.768 28.86 48.307 42.924 41.737 28.83 C 35.173 14.741 29.729 28.918 29.729 28.918 C 29.729 28.918 24.276 42.982 17.703 28.888 C 11.141 14.805 5.695 28.855 5.695 28.855" fill-opacity="0" stroke-linecap="round" stroke-miterlimit="1" stroke-width="1.257"/></g><g><path fill="rgb(0,0,0)" stroke="#000000" d="M 5.694 28.931 C 5.694 28.931 11.161 42.985 17.734 28.887 C 24.299 14.801 29.779 28.86 29.779 28.86 C 29.779 28.86 35.239 42.924 41.803 28.83 C 48.373 14.741 53.819 28.918 53.819 28.918 C 53.819 28.918 59.267 42.982 65.844 28.888 C 72.406 14.8 77.857 28.85 77.857 28.85" fill-opacity="0" stroke-linecap="round" stroke-miterlimit="1" stroke-width="2.514"/></g></g><g><g><path fill="rgb(0,0,0)" stroke="#FFFFFF" d="M 76.587 28.931 C 76.587 28.931 71.12 42.985 64.546 28.887 C 57.98 14.801 52.502 28.86 52.502 28.86 C 52.502 28.86 47.041 42.92 40.471 28.83 C 33.907 14.741 28.463 28.918 28.463 28.918 C 28.463 28.918 23.01 42.982 16.437 28.888 C 9.87 14.799 4.423 28.843 4.423 28.843" fill-opacity="0" stroke-linecap="round" stroke-miterlimit="1" stroke-width="1.257"/></g><g><path fill="rgb(0,0,0)" stroke="#FFFFFF" d="M 4.429 28.931 C 4.429 28.931 9.896 42.985 16.469 28.887 C 23.036 14.801 28.514 28.86 28.514 28.86 C 28.514 28.86 33.975 42.92 40.538 28.83 C 47.107 14.741 52.554 28.918 52.554 28.918 C 52.554 28.918 58.004 42.982 64.578 28.888 C 71.141 14.8 76.592 28.844 76.592 28.844" fill-opacity="0" stroke-linecap="round" stroke-miterlimit="1" stroke-width="2.514"/></g></g></g></g></g></g></g><g transform="matrix(1,0,0,1,911,698)"><g transform="translate(64,0) matrix(1,0,0,1,0,0) translate(-64,0)"><g/></g><g transform="translate(64,0) matrix(1,0,0,1,0,0) translate(-64,0)"><g/></g><g transform="translate(64,0) matrix(1,0,0,1,0,0) translate(-64,0)"><g/></g><g transform="translate(64,0) matrix(1,0,0,1,0,0) translate(-64,0)"><g/><text fill="rgb(0, 0, 0)" stroke="none" font-family="&quot;Arial&quot;" font-size="12px" font-style="normal" font-weight="normal" text-decoration="" line-height="14px" x="3" y="11">HQ_AP02</text></g><g transform="translate(64,0) matrix(1,0,0,1,0,0) translate(-64,0)"><g/></g></g><g transform="matrix(1,0,0,1,667.0145,541.2139999999999)"><g transform="translate(0,0)"><g transform="translate(-625,-540) translate(-42.0145,-1.2139999999999418) matrix(1,0,0,1,0,0)"><g><path fill="none" stroke="#000000" d="M 671.5145 650 L 671.5145 545.7139999999999 L 760 545.7139999999999" stroke-miterlimit="10" stroke-width="2"/></g></g></g></g><g transform="matrix(1,0,0,1,857.711,541.2139999999999)"><g transform="translate(0,0)"><g transform="translate(-621,-700) translate(-236.711,158.78600000000006) matrix(1,0,0,1,0,0)"><g><path fill="none" stroke="#000000" d="M 941.7015 650 L 941.7015 545.7139999999999 L 862.211 545.7139999999999" stroke-miterlimit="10" stroke-width="2"/></g></g></g></g><g transform="translate(0,0) matrix(1,0,0,1,137.789,271.04150000000004)"><g><g transform="translate(0,0) scale(1.022120221202212,1.0409472725432647)"><g><g><path fill="#02709F" stroke="#FFFFFF" d="M -0.42 23.862 L 74.37 23.862 Q 74.37 23.862 74.37 23.862 L 74.37 48.142 Q 74.37 48.142 74.37 48.142 L -0.42 48.142 Q -0.42 48.142 -0.42 48.142 L -0.42 23.862 Q -0.42 23.862 -0.42 23.862 Z" stroke-miterlimit="10" stroke-width="0.8376"/></g><g><path fill="#02709F" stroke="#FFFFFF" d="M -0.618 23.984 L 29.594 -0.499 L 99.381 -0.499 L 74.299 23.984 L -0.618 23.984 Z" stroke-miterlimit="10" stroke-width="0.8376"/></g><g><path fill="#02709F" stroke="#FFFFFF" d="M 74.328 48.906 L 99.315 21.914 L 99.328 -0.458 L 74.328 23.949 L 74.328 48.906 Z" stroke-miterlimit="10" stroke-width="0.8376"/></g><g><path fill="#FFFFFF" stroke="rgb(0,0,0)" d="M 43.223 17.615 L 41.772 18.804 L 23.118 18.804 L 21.259 20.663 L 16.204 18.461 L 26.371 15.555 L 24.572 17.615 L 43.223 17.615 Z" stroke-opacity="0" stroke-miterlimit="10"/></g><g><path fill="#FFFFFF" stroke="rgb(0,0,0)" d="M 57.879 8.453 L 56.428 9.643 L 37.776 9.643 L 35.916 11.502 L 30.862 9.3 L 41.028 6.394 L 39.229 8.453 L 57.879 8.453 Z" stroke-opacity="0" stroke-miterlimit="10"/></g><g><path fill="#FFFFFF" stroke="rgb(0,0,0)" d="M 46.516 14.377 L 47.963 13.19 L 66.619 13.19 L 68.481 11.328 L 73.535 13.532 L 63.369 16.439 L 65.168 14.377 L 46.516 14.377 Z" stroke-opacity="0" stroke-miterlimit="10"/></g><g><path fill="#FFFFFF" stroke="rgb(0,0,0)" d="M 56.201 5.217 L 57.647 4.029 L 76.303 4.029 L 78.164 2.168 L 83.219 4.372 L 73.055 7.278 L 74.852 5.217 L 56.201 5.217 Z" stroke-opacity="0" stroke-miterlimit="10"/></g></g></g></g></g><g transform="matrix(1,0,0,1,157,324)"><g transform="translate(66,0) matrix(1,0,0,1,0,0) translate(-66,0)"><g/></g><g transform="translate(66,0) matrix(1,0,0,1,0,0) translate(-66,0)"><g/></g><g transform="translate(66,0) matrix(1,0,0,1,0,0) translate(-66,0)"><g/></g><g transform="translate(66,0) matrix(1,0,0,1,0,0) translate(-66,0)"><g/><text fill="rgb(0, 0, 0)" stroke="none" font-family="&quot;Arial&quot;" font-size="12px" font-style="normal" font-weight="normal" text-decoration="" line-height="14px" x="3" y="11">BR1_SW1</text></g><g transform="translate(66,0) matrix(1,0,0,1,0,0) translate(-66,0)"><g/></g></g><g transform="matrix(1,0,0,1,184.3945,119.7265)"><g transform="translate(0,0)"><g transform="translate(-237,-122) translate(52.605500000000006,2.2734999999999985) matrix(1,0,0,1,0,0)"><g><path fill="none" stroke="#000000" d="M 240 124.2265 L 188.8945 124.2265 L 188.8945 271.04150000000004" stroke-miterlimit="10" stroke-width="2"/></g></g></g></g><g transform="translate(0,0) matrix(1,0,0,1,20,420)"><g><g transform="translate(0,0) scale(1.03029,1.0611168921262575)"><g><g><g><path fill="#02709F" stroke="#FFFFFF" d="M -1.088 15.045 L 20.4 -0.842 L 98.912 -0.842 L 83.286 15.045 L -1.088 15.045 Z" stroke-miterlimit="10" stroke-width="1.1173"/></g><g><path fill="#02709F" stroke="#FFFFFF" d="M 83.286 42.373 L 98.912 26.546 L 98.912 -0.792 L 83.286 15.045 L 83.286 42.373 Z" stroke-miterlimit="10" stroke-width="1.1173"/></g><g><path fill="#02709F" stroke="#FFFFFF" d="M -0.968 15.045 L 83.286 15.045 Q 83.286 15.045 83.286 15.045 L 83.286 42.403 Q 83.286 42.403 83.286 42.403 L -0.968 42.403 Q -0.968 42.403 -0.968 42.403 L -0.968 15.045 Q -0.968 15.045 -0.968 15.045 Z" stroke-miterlimit="10" stroke-width="1.1173"/></g></g><g><g><path fill="rgb(0,0,0)" stroke="#FFFFFF" d="M 76.587 28.931 C 76.587 28.931 71.12 42.985 64.546 28.887 C 57.98 14.801 52.502 28.86 52.502 28.86 C 52.502 28.86 47.041 42.92 40.471 28.83 C 33.907 14.741 28.463 28.918 28.463 28.918 C 28.463 28.918 23.01 42.982 16.437 28.888 C 9.87 14.799 4.423 28.843 4.423 28.843" fill-opacity="0" stroke-linecap="round" stroke-miterlimit="1" stroke-width="1.257"/></g><g><path fill="rgb(0,0,0)" stroke="#FFFFFF" d="M 4.429 28.931 C 4.429 28.931 9.896 42.985 16.469 28.887 C 23.036 14.801 28.514 28.86 28.514 28.86 C 28.514 28.86 33.975 42.92 40.538 28.83 C 47.107 14.741 52.554 28.918 52.554 28.918 C 52.554 28.918 58.004 42.982 64.578 28.888 C 71.141 14.8 76.592 28.844 76.592 28.844" fill-opacity="0" stroke-linecap="round" stroke-miterlimit="1" stroke-width="2.514"/></g></g><g><g><g><path fill="rgb(0,0,0)" stroke="#000000" d="M 77.853 28.931 C 77.853 28.931 72.386 42.985 65.812 28.887 C 59.246 14.801 53.768 28.86 53.768 28.86 C 53.768 28.86 48.307 42.924 41.737 28.83 C 35.173 14.741 29.729 28.918 29.729 28.918 C 29.729 28.918 24.276 42.982 17.703 28.888 C 11.141 14.805 5.695 28.855 5.695 28.855" fill-opacity="0" stroke-linecap="round" stroke-miterlimit="1" stroke-width="1.257"/></g><g><path fill="rgb(0,0,0)" stroke="#000000" d="M 5.694 28.931 C 5.694 28.931 11.161 42.985 17.734 28.887 C 24.299 14.801 29.779 28.86 29.779 28.86 C 29.779 28.86 35.239 42.924 41.803 28.83 C 48.373 14.741 53.819 28.918 53.819 28.918 C 53.819 28.918 59.267 42.982 65.844 28.888 C 72.406 14.8 77.857 28.85 77.857 28.85" fill-opacity="0" stroke-linecap="round" stroke-miterlimit="1" stroke-width="2.514"/></g></g><g><g><path fill="rgb(0,0,0)" stroke="#FFFFFF" d="M 76.587 28.931 C 76.587 28.931 71.12 42.985 64.546 28.887 C 57.98 14.801 52.502 28.86 52.502 28.86 C 52.502 28.86 47.041 42.92 40.471 28.83 C 33.907 14.741 28.463 28.918 28.463 28.918 C 28.463 28.918 23.01 42.982 16.437 28.888 C 9.87 14.799 4.423 28.843 4.423 28.843" fill-opacity="0" stroke-linecap="round" stroke-miterlimit="1" stroke-width="1.257"/></g><g><path fill="rgb(0,0,0)" stroke="#FFFFFF" d="M 4.429 28.931 C 4.429 28.931 9.896 42.985 16.469 28.887 C 23.036 14.801 28.514 28.86 28.514 28.86 C 28.514 28.86 33.975 42.92 40.538 28.83 C 47.107 14.741 52.554 28.918 52.554 28.918 C 52.554 28.918 58.004 42.982 64.578 28.888 C 71.141 14.8 76.592 28.844 76.592 28.844" fill-opacity="0" stroke-linecap="round" stroke-miterlimit="1" stroke-width="2.514"/></g></g></g><g><g><g><path fill="rgb(0,0,0)" stroke="#000000" d="M 77.853 28.931 C 77.853 28.931 72.386 42.985 65.812 28.887 C 59.246 14.801 53.768 28.86 53.768 28.86 C 53.768 28.86 48.307 42.924 41.737 28.83 C 35.173 14.741 29.729 28.918 29.729 28.918 C 29.729 28.918 24.276 42.982 17.703 28.888 C 11.141 14.805 5.695 28.855 5.695 28.855" fill-opacity="0" stroke-linecap="round" stroke-miterlimit="1" stroke-width="1.257"/></g><g><path fill="rgb(0,0,0)" stroke="#000000" d="M 5.694 28.931 C 5.694 28.931 11.161 42.985 17.734 28.887 C 24.299 14.801 29.779 28.86 29.779 28.86 C 29.779 28.86 35.239 42.924 41.803 28.83 C 48.373 14.741 53.819 28.918 53.819 28.918 C 53.819 28.918 59.267 42.982 65.844 28.888 C 72.406 14.8 77.857 28.85 77.857 28.85" fill-opacity="0" stroke-linecap="round" stroke-miterlimit="1" stroke-width="2.514"/></g></g><g><g><path fill="rgb(0,0,0)" stroke="#FFFFFF" d="M 76.587 28.931 C 76.587 28.931 71.12 42.985 64.546 28.887 C 57.98 14.801 52.502 28.86 52.502 28.86 C 52.502 28.86 47.041 42.92 40.471 28.83 C 33.907 14.741 28.463 28.918 28.463 28.918 C 28.463 28.918 23.01 42.982 16.437 28.888 C 9.87 14.799 4.423 28.843 4.423 28.843" fill-opacity="0" stroke-linecap="round" stroke-miterlimit="1" stroke-width="1.257"/></g><g><path fill="rgb(0,0,0)" stroke="#FFFFFF" d="M 4.429 28.931 C 4.429 28.931 9.896 42.985 16.469 28.887 C 23.036 14.801 28.514 28.86 28.514 28.86 C 28.514 28.86 33.975 42.92 40.538 28.83 C 47.107 14.741 52.554 28.918 52.554 28.918 C 52.554 28.918 58.004 42.982 64.578 28.888 C 71.141 14.8 76.592 28.844 76.592 28.844" fill-opacity="0" stroke-linecap="round" stroke-miterlimit="1" stroke-width="2.514"/></g></g></g></g></g></g></g><g transform="matrix(1,0,0,1,38,468)"><g transform="translate(70,0) matrix(1,0,0,1,0,0) translate(-70,0)"><g/></g><g transform="translate(70,0) matrix(1,0,0,1,0,0) translate(-70,0)"><g/></g><g transform="translate(70,0) matrix(1,0,0,1,0,0) translate(-70,0)"><g/></g><g transform="translate(70,0) matrix(1,0,0,1,0,0) translate(-70,0)"><g/><text fill="rgb(0, 0, 0)" stroke="none" font-family="&quot;Arial&quot;" font-size="12px" font-style="normal" font-weight="normal" text-decoration="" line-height="14px" x="3" y="11">BR1_AP01</text></g><g transform="translate(70,0) matrix(1,0,0,1,0,0) translate(-70,0)"><g/></g></g><g transform="translate(0,0) matrix(1,0,0,1,240,420)"><g><g transform="translate(0,0) scale(1.03029,1.0611168921262575)"><g><g><g><path fill="#02709F" stroke="#FFFFFF" d="M -1.088 15.045 L 20.4 -0.842 L 98.912 -0.842 L 83.286 15.045 L -1.088 15.045 Z" stroke-miterlimit="10" stroke-width="1.1173"/></g><g><path fill="#02709F" stroke="#FFFFFF" d="M 83.286 42.373 L 98.912 26.546 L 98.912 -0.792 L 83.286 15.045 L 83.286 42.373 Z" stroke-miterlimit="10" stroke-width="1.1173"/></g><g><path fill="#02709F" stroke="#FFFFFF" d="M -0.968 15.045 L 83.286 15.045 Q 83.286 15.045 83.286 15.045 L 83.286 42.403 Q 83.286 42.403 83.286 42.403 L -0.968 42.403 Q -0.968 42.403 -0.968 42.403 L -0.968 15.045 Q -0.968 15.045 -0.968 15.045 Z" stroke-miterlimit="10" stroke-width="1.1173"/></g></g><g><g><path fill="rgb(0,0,0)" stroke="#FFFFFF" d="M 76.587 28.931 C 76.587 28.931 71.12 42.985 64.546 28.887 C 57.98 14.801 52.502 28.86 52.502 28.86 C 52.502 28.86 47.041 42.92 40.471 28.83 C 33.907 14.741 28.463 28.918 28.463 28.918 C 28.463 28.918 23.01 42.982 16.437 28.888 C 9.87 14.799 4.423 28.843 4.423 28.843" fill-opacity="0" stroke-linecap="round" stroke-miterlimit="1" stroke-width="1.257"/></g><g><path fill="rgb(0,0,0)" stroke="#FFFFFF" d="M 4.429 28.931 C 4.429 28.931 9.896 42.985 16.469 28.887 C 23.036 14.801 28.514 28.86 28.514 28.86 C 28.514 28.86 33.975 42.92 40.538 28.83 C 47.107 14.741 52.554 28.918 52.554 28.918 C 52.554 28.918 58.004 42.982 64.578 28.888 C 71.141 14.8 76.592 28.844 76.592 28.844" fill-opacity="0" stroke-linecap="round" stroke-miterlimit="1" stroke-width="2.514"/></g></g><g><g><g><path fill="rgb(0,0,0)" stroke="#000000" d="M 77.853 28.931 C 77.853 28.931 72.386 42.985 65.812 28.887 C 59.246 14.801 53.768 28.86 53.768 28.86 C 53.768 28.86 48.307 42.924 41.737 28.83 C 35.173 14.741 29.729 28.918 29.729 28.918 C 29.729 28.918 24.276 42.982 17.703 28.888 C 11.141 14.805 5.695 28.855 5.695 28.855" fill-opacity="0" stroke-linecap="round" stroke-miterlimit="1" stroke-width="1.257"/></g><g><path fill="rgb(0,0,0)" stroke="#000000" d="M 5.694 28.931 C 5.694 28.931 11.161 42.985 17.734 28.887 C 24.299 14.801 29.779 28.86 29.779 28.86 C 29.779 28.86 35.239 42.924 41.803 28.83 C 48.373 14.741 53.819 28.918 53.819 28.918 C 53.819 28.918 59.267 42.982 65.844 28.888 C 72.406 14.8 77.857 28.85 77.857 28.85" fill-opacity="0" stroke-linecap="round" stroke-miterlimit="1" stroke-width="2.514"/></g></g><g><g><path fill="rgb(0,0,0)" stroke="#FFFFFF" d="M 76.587 28.931 C 76.587 28.931 71.12 42.985 64.546 28.887 C 57.98 14.801 52.502 28.86 52.502 28.86 C 52.502 28.86 47.041 42.92 40.471 28.83 C 33.907 14.741 28.463 28.918 28.463 28.918 C 28.463 28.918 23.01 42.982 16.437 28.888 C 9.87 14.799 4.423 28.843 4.423 28.843" fill-opacity="0" stroke-linecap="round" stroke-miterlimit="1" stroke-width="1.257"/></g><g><path fill="rgb(0,0,0)" stroke="#FFFFFF" d="M 4.429 28.931 C 4.429 28.931 9.896 42.985 16.469 28.887 C 23.036 14.801 28.514 28.86 28.514 28.86 C 28.514 28.86 33.975 42.92 40.538 28.83 C 47.107 14.741 52.554 28.918 52.554 28.918 C 52.554 28.918 58.004 42.982 64.578 28.888 C 71.141 14.8 76.592 28.844 76.592 28.844" fill-opacity="0" stroke-linecap="round" stroke-miterlimit="1" stroke-width="2.514"/></g></g></g><g><g><g><path fill="rgb(0,0,0)" stroke="#000000" d="M 77.853 28.931 C 77.853 28.931 72.386 42.985 65.812 28.887 C 59.246 14.801 53.768 28.86 53.768 28.86 C 53.768 28.86 48.307 42.924 41.737 28.83 C 35.173 14.741 29.729 28.918 29.729 28.918 C 29.729 28.918 24.276 42.982 17.703 28.888 C 11.141 14.805 5.695 28.855 5.695 28.855" fill-opacity="0" stroke-linecap="round" stroke-miterlimit="1" stroke-width="1.257"/></g><g><path fill="rgb(0,0,0)" stroke="#000000" d="M 5.694 28.931 C 5.694 28.931 11.161 42.985 17.734 28.887 C 24.299 14.801 29.779 28.86 29.779 28.86 C 29.779 28.86 35.239 42.924 41.803 28.83 C 48.373 14.741 53.819 28.918 53.819 28.918 C 53.819 28.918 59.267 42.982 65.844 28.888 C 72.406 14.8 77.857 28.85 77.857 28.85" fill-opacity="0" stroke-linecap="round" stroke-miterlimit="1" stroke-width="2.514"/></g></g><g><g><path fill="rgb(0,0,0)" stroke="#FFFFFF" d="M 76.587 28.931 C 76.587 28.931 71.12 42.985 64.546 28.887 C 57.98 14.801 52.502 28.86 52.502 28.86 C 52.502 28.86 47.041 42.92 40.471 28.83 C 33.907 14.741 28.463 28.918 28.463 28.918 C 28.463 28.918 23.01 42.982 16.437 28.888 C 9.87 14.799 4.423 28.843 4.423 28.843" fill-opacity="0" stroke-linecap="round" stroke-miterlimit="1" stroke-width="1.257"/></g><g><path fill="rgb(0,0,0)" stroke="#FFFFFF" d="M 4.429 28.931 C 4.429 28.931 9.896 42.985 16.469 28.887 C 23.036 14.801 28.514 28.86 28.514 28.86 C 28.514 28.86 33.975 42.92 40.538 28.83 C 47.107 14.741 52.554 28.918 52.554 28.918 C 52.554 28.918 58.004 42.982 64.578 28.888 C 71.141 14.8 76.592 28.844 76.592 28.844" fill-opacity="0" stroke-linecap="round" stroke-miterlimit="1" stroke-width="2.514"/></g></g></g></g></g></g></g><g transform="matrix(1,0,0,1,258,468)"><g transform="translate(70,0) matrix(1,0,0,1,0,0) translate(-70,0)"><g/></g><g transform="translate(70,0) matrix(1,0,0,1,0,0) translate(-70,0)"><g/></g><g transform="translate(70,0) matrix(1,0,0,1,0,0) translate(-70,0)"><g/></g><g transform="translate(70,0) matrix(1,0,0,1,0,0) translate(-70,0)"><g/><text fill="rgb(0, 0, 0)" stroke="none" font-family="&quot;Arial&quot;" font-size="12px" font-style="normal" font-weight="normal" text-decoration="" line-height="14px" x="3" y="11">BR1_AP02</text></g><g transform="translate(70,0) matrix(1,0,0,1,0,0) translate(-70,0)"><g/></g></g><g transform="matrix(1,0,0,1,235.5,292.25550000000004)"><g transform="translate(0,0)"><g transform="translate(-238,-300) translate(2.5,7.7444999999999595) matrix(1,0,0,1,0,0)"><g><path fill="none" stroke="#000000" d="M 240 296.75550000000004 L 291.5145 296.75550000000004 L 291.5145 420" stroke-miterlimit="10" stroke-width="2"/></g></g></g></g><g transform="matrix(1,0,0,1,67.0145,292.25550000000004)"><g transform="translate(0,0)"><g transform="translate(-133,-295) translate(65.9855,2.7444999999999595) matrix(1,0,0,1,0,0)"><g><path fill="none" stroke="#000000" d="M 137.789 296.75550000000004 L 71.5145 296.75550000000004 L 71.5145 420" stroke-miterlimit="10" stroke-width="2"/></g></g></g></g><g transform="matrix(1,0,0,1,857,890)"><g transform="translate(168,13) matrix(1,0,0,1,0,0) translate(-168,-13)"><g/></g><g transform="translate(168,13) matrix(1,0,0,1,0,0) translate(-168,-13)"><g/></g><g transform="translate(168,13) matrix(1,0,0,1,0,0) translate(-168,-13)"><g/></g><g transform="translate(168,13) matrix(1,0,0,1,0,0) translate(-168,-13)"><g/></g><g transform="translate(168,13) matrix(1,0,0,1,0,0) translate(-168,-13)"><g/><text fill="rgb(0, 0, 0)" stroke="none" font-family="&quot;Arial&quot;" font-size="14px" font-style="normal" font-weight="normal" text-decoration="" line-height="16.5px" x="28" y="13">:</text><text fill="rgb(0, 0, 0)" stroke="none" font-family="&quot;Arial&quot;" font-size="14px" font-style="normal" font-weight="normal" text-decoration="" line-height="16.5px" x="36" y="13">172</text><text fill="rgb(0, 0, 0)" stroke="none" font-family="&quot;Arial&quot;" font-size="14px" font-style="normal" font-weight="normal" text-decoration="" line-height="16.5px" x="60" y="13">.</text><text fill="rgb(0, 0, 0)" stroke="none" font-family="&quot;Arial&quot;" font-size="14px" font-style="normal" font-weight="normal" text-decoration="" line-height="16.5px" x="64" y="13">16</text><text fill="rgb(0, 0, 0)" stroke="none" font-family="&quot;Arial&quot;" font-size="14px" font-style="normal" font-weight="normal" text-decoration="" line-height="16.5px" x="80" y="13">.</text><text fill="rgb(0, 0, 0)" stroke="none" font-family="&quot;Arial&quot;" font-size="14px" font-style="normal" font-weight="normal" text-decoration="" line-height="16.5px" x="84" y="13">199</text><text fill="rgb(0, 0, 0)" stroke="none" font-family="&quot;Arial&quot;" font-size="14px" font-style="normal" font-weight="normal" text-decoration="" line-height="16.5px" x="108" y="13">.</text><text fill="rgb(0, 0, 0)" stroke="none" font-family="&quot;Arial&quot;" font-size="14px" font-style="normal" font-weight="normal" text-decoration="" line-height="16.5px" x="112" y="13">0</text><text fill="rgb(0, 0, 0)" stroke="none" font-family="&quot;Arial&quot;" font-size="14px" font-style="normal" font-weight="normal" text-decoration="" line-height="16.5px" x="120" y="13">/</text><text fill="rgb(0, 0, 0)" stroke="none" font-family="&quot;Arial&quot;" font-size="14px" font-style="normal" font-weight="normal" text-decoration="" line-height="16.5px" x="124" y="13">24</text></g><g transform="translate(168,13) matrix(1,0,0,1,0,0) translate(-168,-13)"><g/><text fill="rgb(0, 0, 0)" stroke="none" font-family="&quot;Arial&quot;" font-size="14px" font-style="normal" font-weight="700" text-decoration="" line-height="16.5px" x="7" y="13">HQ</text></g><g transform="translate(168,13) matrix(1,0,0,1,0,0) translate(-168,-13)"><g/></g></g><g transform="matrix(1,0,0,1,125,563)"><g transform="translate(155,13) matrix(1,0,0,1,0,0) translate(-155,-13)"><g/></g><g transform="translate(155,13) matrix(1,0,0,1,0,0) translate(-155,-13)"><g/></g><g transform="translate(155,13) matrix(1,0,0,1,0,0) translate(-155,-13)"><g/></g><g transform="translate(155,13) matrix(1,0,0,1,0,0) translate(-155,-13)"><g/></g><g transform="translate(155,13) matrix(1,0,0,1,0,0) translate(-155,-13)"><g/><text fill="rgb(0, 0, 0)" stroke="none" font-family="&quot;Arial&quot;" font-size="14px" font-style="normal" font-weight="normal" text-decoration="" line-height="16.5px" x="31" y="13">:</text><text fill="rgb(0, 0, 0)" stroke="none" font-family="&quot;Arial&quot;" font-size="14px" font-style="normal" font-weight="normal" text-decoration="" line-height="16.5px" x="39" y="13">172</text><text fill="rgb(0, 0, 0)" stroke="none" font-family="&quot;Arial&quot;" font-size="14px" font-style="normal" font-weight="normal" text-decoration="" line-height="16.5px" x="63" y="13">.</text><text fill="rgb(0, 0, 0)" stroke="none" font-family="&quot;Arial&quot;" font-size="14px" font-style="normal" font-weight="normal" text-decoration="" line-height="16.5px" x="67" y="13">16</text><text fill="rgb(0, 0, 0)" stroke="none" font-family="&quot;Arial&quot;" font-size="14px" font-style="normal" font-weight="normal" text-decoration="" line-height="16.5px" x="83" y="13">.</text><text fill="rgb(0, 0, 0)" stroke="none" font-family="&quot;Arial&quot;" font-size="14px" font-style="normal" font-weight="normal" text-decoration="" line-height="16.5px" x="87" y="13">198</text><text fill="rgb(0, 0, 0)" stroke="none" font-family="&quot;Arial&quot;" font-size="14px" font-style="normal" font-weight="normal" text-decoration="" line-height="16.5px" x="111" y="13">.</text><text fill="rgb(0, 0, 0)" stroke="none" font-family="&quot;Arial&quot;" font-size="14px" font-style="normal" font-weight="normal" text-decoration="" line-height="16.5px" x="115" y="13">0</text><text fill="rgb(0, 0, 0)" stroke="none" font-family="&quot;Arial&quot;" font-size="14px" font-style="normal" font-weight="normal" text-decoration="" line-height="16.5px" x="123" y="13">/</text><text fill="rgb(0, 0, 0)" stroke="none" font-family="&quot;Arial&quot;" font-size="14px" font-style="normal" font-weight="normal" text-decoration="" line-height="16.5px" x="127" y="13">24</text></g><g transform="translate(155,13) matrix(1,0,0,1,0,0) translate(-155,-13)"><g/><text fill="rgb(0, 0, 0)" stroke="none" font-family="&quot;Arial&quot;" font-size="14px" font-style="normal" font-weight="700" text-decoration="" line-height="16.5px" x="3" y="13">BR1</text></g><g transform="translate(155,13) matrix(1,0,0,1,0,0) translate(-155,-13)"><g/></g></g><g transform="matrix(1,0,0,1,532,22)"><g transform="translate(297,30) matrix(1,0,0,1,0,0) translate(-297,-30)"><g/></g><g transform="translate(297,30) matrix(1,0,0,1,0,0) translate(-297,-30)"><g/></g><g transform="translate(297,30) matrix(1,0,0,1,0,0) translate(-297,-30)"><g/></g><g transform="translate(297,30) matrix(1,0,0,1,0,0) translate(-297,-30)"><g/></g><g transform="translate(297,30) matrix(1,0,0,1,0,0) translate(-297,-30)"><g/><text fill="rgb(0, 0, 0)" stroke="none" font-family="&quot;Arial&quot;" font-size="14px" font-style="normal" font-weight="normal" text-decoration="" line-height="16.5px" x="100" y="13">:</text><text fill="rgb(0, 0, 0)" stroke="none" font-family="&quot;Arial&quot;" font-size="14px" font-style="normal" font-weight="normal" text-decoration="" line-height="16.5px" x="21" y="30">192</text><text fill="rgb(0, 0, 0)" stroke="none" font-family="&quot;Arial&quot;" font-size="14px" font-style="normal" font-weight="normal" text-decoration="" line-height="16.5px" x="45" y="30">.</text><text fill="rgb(0, 0, 0)" stroke="none" font-family="&quot;Arial&quot;" font-size="14px" font-style="normal" font-weight="normal" text-decoration="" line-height="16.5px" x="49" y="30">16</text><text fill="rgb(0, 0, 0)" stroke="none" font-family="&quot;Arial&quot;" font-size="14px" font-style="normal" font-weight="normal" text-decoration="" line-height="16.5px" x="65" y="30">.</text><text fill="rgb(0, 0, 0)" stroke="none" font-family="&quot;Arial&quot;" font-size="14px" font-style="normal" font-weight="normal" text-decoration="" line-height="16.5px" x="69" y="30">197</text><text fill="rgb(0, 0, 0)" stroke="none" font-family="&quot;Arial&quot;" font-size="14px" font-style="normal" font-weight="normal" text-decoration="" line-height="16.5px" x="93" y="30">.</text><text fill="rgb(0, 0, 0)" stroke="none" font-family="&quot;Arial&quot;" font-size="14px" font-style="normal" font-weight="normal" text-decoration="" line-height="16.5px" x="97" y="30">0</text><text fill="rgb(0, 0, 0)" stroke="none" font-family="&quot;Arial&quot;" font-size="14px" font-style="normal" font-weight="normal" text-decoration="" line-height="16.5px" x="105" y="30">/</text><text fill="rgb(0, 0, 0)" stroke="none" font-family="&quot;Arial&quot;" font-size="14px" font-style="normal" font-weight="normal" text-decoration="" line-height="16.5px" x="109" y="30">30</text></g><g transform="translate(297,30) matrix(1,0,0,1,0,0) translate(-297,-30)"><g/><text fill="rgb(0, 0, 0)" stroke="none" font-family="&quot;Arial&quot;" font-size="14px" font-style="normal" font-weight="700" text-decoration="" line-height="16.5px" x="43" y="13">HQ_BR1</text></g><g transform="translate(297,30) matrix(1,0,0,1,0,0) translate(-297,-30)"><g/></g></g><g transform="matrix(1,0,0,1,302,100)"><g transform="translate(195,0) matrix(1,0,0,1,0,0) translate(-195,0)"><g/></g><g transform="translate(195,0) matrix(1,0,0,1,0,0) translate(-195,0)"><g/></g><g transform="translate(195,0) matrix(1,0,0,1,0,0) translate(-195,0)"><g/></g><g transform="translate(195,0) matrix(1,0,0,1,0,0) translate(-195,0)"><g/><text fill="rgb(0, 0, 0)" stroke="none" font-family="&quot;Arial&quot;" font-size="12px" font-style="normal" font-weight="normal" text-decoration="" line-height="14px" x="48" y="11">S0</text><text fill="rgb(0, 0, 0)" stroke="none" font-family="&quot;Arial&quot;" font-size="12px" font-style="normal" font-weight="normal" text-decoration="" line-height="14px" x="63" y="11">/</text><text fill="rgb(0, 0, 0)" stroke="none" font-family="&quot;Arial&quot;" font-size="12px" font-style="normal" font-weight="normal" text-decoration="" line-height="14px" x="66" y="11">0</text><text fill="rgb(0, 0, 0)" stroke="none" font-family="&quot;Arial&quot;" font-size="12px" font-style="normal" font-weight="normal" text-decoration="" line-height="14px" x="73" y="11">/</text><text fill="rgb(0, 0, 0)" stroke="none" font-family="&quot;Arial&quot;" font-size="12px" font-style="normal" font-weight="normal" text-decoration="" line-height="14px" x="76" y="11">0</text><text fill="rgb(0, 0, 0)" stroke="none" font-family="&quot;Arial&quot;" font-size="12px" font-style="normal" font-weight="normal" text-decoration="" line-height="14px" x="83" y="11">:</text><text fill="rgb(0, 0, 0)" stroke="none" font-family="&quot;Arial&quot;" font-size="12px" font-style="normal" font-weight="normal" text-decoration="" line-height="14px" x="89" y="11">.</text><text fill="rgb(0, 0, 0)" stroke="none" font-family="&quot;Arial&quot;" font-size="12px" font-style="normal" font-weight="normal" text-decoration="" line-height="14px" x="92" y="11">2</text></g><g transform="translate(195,0) matrix(1,0,0,1,0,0) translate(-195,0)"><g/></g></g><g transform="matrix(1,0,0,1,782,100)"><g transform="translate(195,0) matrix(1,0,0,1,0,0) translate(-195,0)"><g/></g><g transform="translate(195,0) matrix(1,0,0,1,0,0) translate(-195,0)"><g/></g><g transform="translate(195,0) matrix(1,0,0,1,0,0) translate(-195,0)"><g/></g><g transform="translate(195,0) matrix(1,0,0,1,0,0) translate(-195,0)"><g/><text fill="rgb(0, 0, 0)" stroke="none" font-family="&quot;Arial&quot;" font-size="12px" font-style="normal" font-weight="normal" text-decoration="" line-height="14px" x="48" y="11">S0</text><text fill="rgb(0, 0, 0)" stroke="none" font-family="&quot;Arial&quot;" font-size="12px" font-style="normal" font-weight="normal" text-decoration="" line-height="14px" x="63" y="11">/</text><text fill="rgb(0, 0, 0)" stroke="none" font-family="&quot;Arial&quot;" font-size="12px" font-style="normal" font-weight="normal" text-decoration="" line-height="14px" x="66" y="11">0</text><text fill="rgb(0, 0, 0)" stroke="none" font-family="&quot;Arial&quot;" font-size="12px" font-style="normal" font-weight="normal" text-decoration="" line-height="14px" x="73" y="11">/</text><text fill="rgb(0, 0, 0)" stroke="none" font-family="&quot;Arial&quot;" font-size="12px" font-style="normal" font-weight="normal" text-decoration="" line-height="14px" x="76" y="11">0</text><text fill="rgb(0, 0, 0)" stroke="none" font-family="&quot;Arial&quot;" font-size="12px" font-style="normal" font-weight="normal" text-decoration="" line-height="14px" x="83" y="11">:</text><text fill="rgb(0, 0, 0)" stroke="none" font-family="&quot;Arial&quot;" font-size="12px" font-style="normal" font-weight="normal" text-decoration="" line-height="14px" x="89" y="11">.</text><text fill="rgb(0, 0, 0)" stroke="none" font-family="&quot;Arial&quot;" font-size="12px" font-style="normal" font-weight="normal" text-decoration="" line-height="14px" x="92" y="11">1</text></g><g transform="translate(195,0) matrix(1,0,0,1,0,0) translate(-195,0)"><g/></g></g><g transform="matrix(1,0,0,1,750.5,271.5)"><g transform="translate(0,0)"><g transform="translate(-992,-300) translate(241.5,28.5) matrix(1,0,0,1,0,0)"><g><path fill="none" stroke="#000000" d="M 890 351.2725 M 890 351.2725 L 888.2531844021001 350.2985209104228 M 888.2531844021001 350.2985209104228 M 886.5063688042003 349.3245418208456 L 884.7595532063004 348.3505627312684 M 884.7595532063004 348.3505627312684 M 883.0127376084006 347.3765836416912 L 881.2659220105007 346.402604552114 M 881.2659220105007 346.402604552114 M 879.5191064126009 345.4286254625368 L 877.772290814701 344.4546463729596 M 877.772290814701 344.4546463729596 M 876.0254752168012 343.4806672833824 L 874.2786596189013 342.5066881938052 M 874.2786596189013 342.5066881938052 M 872.5318440210015 341.532709104228 L 870.7850284231016 340.5587300146508 M 870.7850284231016 340.5587300146508 M 869.0382128252018 339.5847509250736 L 867.2913972273019 338.6107718354964 M 867.2913972273019 338.6107718354964 M 865.544581629402 337.6367927459192 L 863.7977660315022 336.662813656342 M 863.7977660315022 336.662813656342 M 862.0509504336023 335.6888345667648 L 860.3041348357025 334.7148554771876 M 860.3041348357025 334.7148554771876 M 858.5573192378026 333.7408763876104 L 856.8105036399028 332.7668972980332 M 856.8105036399028 332.7668972980332 M 855.0636880420029 331.792918208456 L 853.3168724441031 330.8189391188788 M 853.3168724441031 330.8189391188788 M 851.5700568462032 329.8449600293016 L 849.8232412483034 328.8709809397244 M 849.8232412483034 328.8709809397244 M 848.0764256504035 327.8970018501472 L 846.3296100525037 326.92302276057 M 846.3296100525037 326.92302276057 M 844.5827944546038 325.9490436709928 L 842.835978856704 324.9750645814156 M 842.835978856704 324.9750645814156 M 841.0891632588041 324.0010854918384 L 839.3423476609041 323.0271064022612 M 839.3423476609041 323.0271064022612 M 837.5955320630042 322.053127312684 L 835.8487164651042 321.0791482231068 M 835.8487164651042 321.0791482231068 M 834.1019008672042 320.1051691335296 L 832.3550852693043 319.1311900439524 M 832.3550852693043 319.1311900439524 M 830.6082696714043 318.1572109543752 L 828.8614540735043 317.183231864798 M 828.8614540735043 317.183231864798 M 827.1146384756044 316.2092527752208 L 825.3678228777044 315.2352736856436 M 825.3678228777044 315.2352736856436 M 823.6210072798044 314.2612945960664 L 821.8741916819044 313.2873155064892 M 821.8741916819044 313.2873155064892 M 820.1273760840045 312.313336416912 L 818.3805604861045 311.3393573273348 M 818.3805604861045 311.3393573273348 M 816.6337448882045 310.3653782377576 L 814.8869292903046 309.3913991481804 M 814.8869292903046 309.3913991481804 M 813.1401136924046 308.4174200586032 L 811.3932980945048 307.443440969026 M 811.3932980945048 307.443440969026 M 809.6464824966048 306.46946187944883 L 807.8996668987048 305.49548278987163 M 807.8996668987048 305.49548278987163 M 806.1528513008049 304.52150370029443 L 804.4060357029049 303.54752461071723 M 804.4060357029049 303.54752461071723 M 802.6592201050049 302.57354552114003 L 800.912404507105 301.59956643156283 M 800.912404507105 301.59956643156283 M 799.165588909205 300.62558734198564 L 797.4187733113051 299.65160825240844 M 797.4187733113051 299.65160825240844 M 795.6719577134052 298.6776291628313 L 793.9251421155052 297.7036500732541 M 793.9251421155052 297.7036500732541 M 792.1783265176052 296.7296709836769 L 790.4315109197053 295.7556918940997 M 790.4315109197053 295.7556918940997 M 788.6846953218054 294.7817128045225 L 786.9378797239054 293.80773371494536 M 786.9378797239054 293.80773371494536 M 785.1910641260056 292.83375462536816 L 783.4442485281056 291.859775535791 M 783.4442485281056 291.859775535791 M 781.6974329302057 290.8857964462138 L 779.9506173323058 289.9118173566366 M 779.9506173323058 289.9118173566366 M 778.2038017344058 288.9378382670595 L 776.456986136506 287.9638591774823 M 776.456986136506 287.9638591774823 M 774.710170538606 286.98988008790514 L 772.9633549407062 286.01590099832794 M 772.9633549407062 286.01590099832794 M 771.2165393428062 285.0419219087508 L 769.4697237449063 284.0679428191736 M 769.4697237449063 284.0679428191736 M 767.7229081470064 283.09396372959645 L 765.9760925491065 282.11998464001925 M 765.9760925491065 282.11998464001925 M 764.2292769512065 281.1460055504421 L 762.4824613533067 280.1720264608649 M 762.4824613533067 280.1720264608649 M 760.7356457554067 279.19804737128777 L 758.9888301575069 278.2240682817106 M 758.9888301575069 278.2240682817106 M 757.2420145596069 277.25008919213343 L 755.495198961707 276.27611010255623 M 755.495198961707 276.27611010255623" stroke-miterlimit="10" stroke-width="2"/></g></g></g></g><g transform="matrix(1,0,0,1,143,100)"><g transform="translate(198,0) matrix(1,0,0,1,0,0) translate(-198,0)"><g/></g><g transform="translate(198,0) matrix(1,0,0,1,0,0) translate(-198,0)"><g/></g><g transform="translate(198,0) matrix(1,0,0,1,0,0) translate(-198,0)"><g/></g><g transform="translate(198,0) matrix(1,0,0,1,0,0) translate(-198,0)"><g/><text fill="rgb(0, 0, 0)" stroke="none" font-family="&quot;Arial&quot;" font-size="12px" font-style="normal" font-weight="normal" text-decoration="" line-height="14px" x="52" y="11">G0</text><text fill="rgb(0, 0, 0)" stroke="none" font-family="&quot;Arial&quot;" font-size="12px" font-style="normal" font-weight="normal" text-decoration="" line-height="14px" x="68" y="11">/</text><text fill="rgb(0, 0, 0)" stroke="none" font-family="&quot;Arial&quot;" font-size="12px" font-style="normal" font-weight="normal" text-decoration="" line-height="14px" x="71" y="11">0</text><text fill="rgb(0, 0, 0)" stroke="none" font-family="&quot;Arial&quot;" font-size="12px" font-style="normal" font-weight="normal" text-decoration="" line-height="14px" x="78" y="11">:</text><text fill="rgb(0, 0, 0)" stroke="none" font-family="&quot;Arial&quot;" font-size="12px" font-style="normal" font-weight="normal" text-decoration="" line-height="14px" x="84" y="11">.</text><text fill="rgb(0, 0, 0)" stroke="none" font-family="&quot;Arial&quot;" font-size="12px" font-style="normal" font-weight="normal" text-decoration="" line-height="14px" x="87" y="11">1</text></g><g transform="translate(198,0) matrix(1,0,0,1,0,0) translate(-198,0)"><g/></g></g><g transform="matrix(1,0,0,1,831,158)"><g transform="translate(198,0) matrix(1,0,0,1,0,0) translate(-198,0)"><g/></g><g transform="translate(198,0) matrix(1,0,0,1,0,0) translate(-198,0)"><g/></g><g transform="translate(198,0) matrix(1,0,0,1,0,0) translate(-198,0)"><g/></g><g transform="translate(198,0) matrix(1,0,0,1,0,0) translate(-198,0)"><g/><text fill="rgb(0, 0, 0)" stroke="none" font-family="&quot;Arial&quot;" font-size="12px" font-style="normal" font-weight="normal" text-decoration="" line-height="14px" x="52" y="11">G0</text><text fill="rgb(0, 0, 0)" stroke="none" font-family="&quot;Arial&quot;" font-size="12px" font-style="normal" font-weight="normal" text-decoration="" line-height="14px" x="68" y="11">/</text><text fill="rgb(0, 0, 0)" stroke="none" font-family="&quot;Arial&quot;" font-size="12px" font-style="normal" font-weight="normal" text-decoration="" line-height="14px" x="71" y="11">0</text><text fill="rgb(0, 0, 0)" stroke="none" font-family="&quot;Arial&quot;" font-size="12px" font-style="normal" font-weight="normal" text-decoration="" line-height="14px" x="78" y="11">:</text><text fill="rgb(0, 0, 0)" stroke="none" font-family="&quot;Arial&quot;" font-size="12px" font-style="normal" font-weight="normal" text-decoration="" line-height="14px" x="84" y="11">.</text><text fill="rgb(0, 0, 0)" stroke="none" font-family="&quot;Arial&quot;" font-size="12px" font-style="normal" font-weight="normal" text-decoration="" line-height="14px" x="87" y="11">2</text></g><g transform="translate(198,0) matrix(1,0,0,1,0,0) translate(-198,0)"><g/></g></g><g transform="matrix(1,0,0,1,943,363)"><g transform="translate(200,0) matrix(1,0,0,1,0,0) translate(-200,0)"><g/></g><g transform="translate(200,0) matrix(1,0,0,1,0,0) translate(-200,0)"><g/></g><g transform="translate(200,0) matrix(1,0,0,1,0,0) translate(-200,0)"><g/></g><g transform="translate(200,0) matrix(1,0,0,1,0,0) translate(-200,0)"><g/><text fill="rgb(0, 0, 0)" stroke="none" font-family="&quot;Arial&quot;" font-size="12px" font-style="normal" font-weight="normal" text-decoration="" line-height="14px" x="54" y="11">Fa0</text><text fill="rgb(0, 0, 0)" stroke="none" font-family="&quot;Arial&quot;" font-size="12px" font-style="normal" font-weight="normal" text-decoration="" line-height="14px" x="75" y="11">/</text><text fill="rgb(0, 0, 0)" stroke="none" font-family="&quot;Arial&quot;" font-size="12px" font-style="normal" font-weight="normal" text-decoration="" line-height="14px" x="78" y="11">23</text></g><g transform="translate(200,0) matrix(1,0,0,1,0,0) translate(-200,0)"><g/></g></g><g transform="matrix(1,0,0,1,793,363)"><g transform="translate(205,0) matrix(1,0,0,1,0,0) translate(-205,0)"><g/></g><g transform="translate(205,0) matrix(1,0,0,1,0,0) translate(-205,0)"><g/></g><g transform="translate(205,0) matrix(1,0,0,1,0,0) translate(-205,0)"><g/></g><g transform="translate(205,0) matrix(1,0,0,1,0,0) translate(-205,0)"><g/><text fill="rgb(0, 0, 0)" stroke="none" font-family="&quot;Arial&quot;" font-size="12px" font-style="normal" font-weight="normal" text-decoration="" line-height="14px" x="58" y="11">Fa0</text><text fill="rgb(0, 0, 0)" stroke="none" font-family="&quot;Arial&quot;" font-size="12px" font-style="normal" font-weight="normal" text-decoration="" line-height="14px" x="79" y="11">/</text><text fill="rgb(0, 0, 0)" stroke="none" font-family="&quot;Arial&quot;" font-size="12px" font-style="normal" font-weight="normal" text-decoration="" line-height="14px" x="82" y="11">1</text></g><g transform="translate(205,0) matrix(1,0,0,1,0,0) translate(-205,0)"><g/></g></g><g transform="matrix(1,0,0,1,762,490)"><g transform="translate(205,0) matrix(1,0,0,1,0,0) translate(-205,0)"><g/></g><g transform="translate(205,0) matrix(1,0,0,1,0,0) translate(-205,0)"><g/></g><g transform="translate(205,0) matrix(1,0,0,1,0,0) translate(-205,0)"><g/></g><g transform="translate(205,0) matrix(1,0,0,1,0,0) translate(-205,0)"><g/><text fill="rgb(0, 0, 0)" stroke="none" font-family="&quot;Arial&quot;" font-size="12px" font-style="normal" font-weight="normal" text-decoration="" line-height="14px" x="58" y="11">Fa0</text><text fill="rgb(0, 0, 0)" stroke="none" font-family="&quot;Arial&quot;" font-size="12px" font-style="normal" font-weight="normal" text-decoration="" line-height="14px" x="79" y="11">/</text><text fill="rgb(0, 0, 0)" stroke="none" font-family="&quot;Arial&quot;" font-size="12px" font-style="normal" font-weight="normal" text-decoration="" line-height="14px" x="82" y="11">1</text></g><g transform="translate(205,0) matrix(1,0,0,1,0,0) translate(-205,0)"><g/></g></g><g transform="matrix(1,0,0,1,663,549)"><g transform="translate(200,0) matrix(1,0,0,1,0,0) translate(-200,0)"><g/></g><g transform="translate(200,0) matrix(1,0,0,1,0,0) translate(-200,0)"><g/></g><g transform="translate(200,0) matrix(1,0,0,1,0,0) translate(-200,0)"><g/></g><g transform="translate(200,0) matrix(1,0,0,1,0,0) translate(-200,0)"><g/><text fill="rgb(0, 0, 0)" stroke="none" font-family="&quot;Arial&quot;" font-size="12px" font-style="normal" font-weight="normal" text-decoration="" line-height="14px" x="54" y="11">Fa0</text><text fill="rgb(0, 0, 0)" stroke="none" font-family="&quot;Arial&quot;" font-size="12px" font-style="normal" font-weight="normal" text-decoration="" line-height="14px" x="75" y="11">/</text><text fill="rgb(0, 0, 0)" stroke="none" font-family="&quot;Arial&quot;" font-size="12px" font-style="normal" font-weight="normal" text-decoration="" line-height="14px" x="78" y="11">23</text></g><g transform="translate(200,0) matrix(1,0,0,1,0,0) translate(-200,0)"><g/></g></g><g transform="matrix(1,0,0,1,802,554)"><g transform="translate(200,0) matrix(1,0,0,1,0,0) translate(-200,0)"><g/></g><g transform="translate(200,0) matrix(1,0,0,1,0,0) translate(-200,0)"><g/></g><g transform="translate(200,0) matrix(1,0,0,1,0,0) translate(-200,0)"><g/></g><g transform="translate(200,0) matrix(1,0,0,1,0,0) translate(-200,0)"><g/><text fill="rgb(0, 0, 0)" stroke="none" font-family="&quot;Arial&quot;" font-size="12px" font-style="normal" font-weight="normal" text-decoration="" line-height="14px" x="54" y="11">Fa0</text><text fill="rgb(0, 0, 0)" stroke="none" font-family="&quot;Arial&quot;" font-size="12px" font-style="normal" font-weight="normal" text-decoration="" line-height="14px" x="75" y="11">/</text><text fill="rgb(0, 0, 0)" stroke="none" font-family="&quot;Arial&quot;" font-size="12px" font-style="normal" font-weight="normal" text-decoration="" line-height="14px" x="78" y="11">24</text></g><g transform="translate(200,0) matrix(1,0,0,1,0,0) translate(-200,0)"><g/></g></g><g transform="matrix(1,0,0,1,38,301)"><g transform="translate(200,0) matrix(1,0,0,1,0,0) translate(-200,0)"><g/></g><g transform="translate(200,0) matrix(1,0,0,1,0,0) translate(-200,0)"><g/></g><g transform="translate(200,0) matrix(1,0,0,1,0,0) translate(-200,0)"><g/></g><g transform="translate(200,0) matrix(1,0,0,1,0,0) translate(-200,0)"><g/><text fill="rgb(0, 0, 0)" stroke="none" font-family="&quot;Arial&quot;" font-size="12px" font-style="normal" font-weight="normal" text-decoration="" line-height="14px" x="54" y="11">Fa0</text><text fill="rgb(0, 0, 0)" stroke="none" font-family="&quot;Arial&quot;" font-size="12px" font-style="normal" font-weight="normal" text-decoration="" line-height="14px" x="75" y="11">/</text><text fill="rgb(0, 0, 0)" stroke="none" font-family="&quot;Arial&quot;" font-size="12px" font-style="normal" font-weight="normal" text-decoration="" line-height="14px" x="78" y="11">23</text></g><g transform="translate(200,0) matrix(1,0,0,1,0,0) translate(-200,0)"><g/></g></g><g transform="matrix(1,0,0,1,188,300)"><g transform="translate(200,0) matrix(1,0,0,1,0,0) translate(-200,0)"><g/></g><g transform="translate(200,0) matrix(1,0,0,1,0,0) translate(-200,0)"><g/></g><g transform="translate(200,0) matrix(1,0,0,1,0,0) translate(-200,0)"><g/></g><g transform="translate(200,0) matrix(1,0,0,1,0,0) translate(-200,0)"><g/><text fill="rgb(0, 0, 0)" stroke="none" font-family="&quot;Arial&quot;" font-size="12px" font-style="normal" font-weight="normal" text-decoration="" line-height="14px" x="54" y="11">Fa0</text><text fill="rgb(0, 0, 0)" stroke="none" font-family="&quot;Arial&quot;" font-size="12px" font-style="normal" font-weight="normal" text-decoration="" line-height="14px" x="75" y="11">/</text><text fill="rgb(0, 0, 0)" stroke="none" font-family="&quot;Arial&quot;" font-size="12px" font-style="normal" font-weight="normal" text-decoration="" line-height="14px" x="78" y="11">24</text></g><g transform="translate(200,0) matrix(1,0,0,1,0,0) translate(-200,0)"><g/></g></g><g transform="matrix(1,0,0,1,612,238)"><g transform="translate(349,420) matrix(1,0,0,1,0,0) translate(-349,-420)"><g/></g><g transform="translate(349,420) matrix(1,0,0,1,0,0) translate(-349,-420)"><g/></g><g transform="translate(349,420) matrix(1,0,0,1,0,0) translate(-349,-420)"><g/></g><g transform="translate(349,420) matrix(1,0,0,1,0,0) translate(-349,-420)"><g/><text fill="rgb(0, 0, 0)" stroke="none" font-family="&quot;Arial&quot;" font-size="12px" font-style="normal" font-weight="normal" text-decoration="" line-height="14px" x="80" y="11">s</text></g><g transform="translate(349,420) matrix(1,0,0,1,0,0) translate(-349,-420)"><g/><text fill="rgb(0, 0, 0)" stroke="none" font-family="&quot;Arial&quot;" font-size="12px" font-style="normal" font-weight="700" text-decoration="" line-height="14px" x="61" y="11">SVI</text></g><g transform="translate(349,420) matrix(1,0,0,1,0,0) translate(-349,-420)"><g/></g><g transform="translate(349,420) matrix(1,0,0,1,0,0) translate(-349,-420)"><g/></g><g transform="translate(349,420) matrix(1,0,0,1,0,0) translate(-349,-420)"><g/></g><g transform="translate(349,420) matrix(1,0,0,1,0,0) translate(-349,-420)"><g/><text fill="rgb(0, 0, 0)" stroke="none" font-family="&quot;Arial&quot;" font-size="12px" font-style="normal" font-weight="normal" text-decoration="" line-height="14px" x="10" y="25">Vlan</text><text fill="rgb(0, 0, 0)" stroke="none" font-family="&quot;Arial&quot;" font-size="12px" font-style="normal" font-weight="normal" text-decoration="" line-height="14px" x="38" y="25">190</text><text fill="rgb(0, 0, 0)" stroke="none" font-family="&quot;Arial&quot;" font-size="12px" font-style="normal" font-weight="normal" text-decoration="" line-height="14px" x="59" y="25">:</text><text fill="rgb(0, 0, 0)" stroke="none" font-family="&quot;Arial&quot;" font-size="12px" font-style="normal" font-weight="normal" text-decoration="" line-height="14px" x="65" y="25">172</text><text fill="rgb(0, 0, 0)" stroke="none" font-family="&quot;Arial&quot;" font-size="12px" font-style="normal" font-weight="normal" text-decoration="" line-height="14px" x="86" y="25">.</text><text fill="rgb(0, 0, 0)" stroke="none" font-family="&quot;Arial&quot;" font-size="12px" font-style="normal" font-weight="normal" text-decoration="" line-height="14px" x="89" y="25">16</text><text fill="rgb(0, 0, 0)" stroke="none" font-family="&quot;Arial&quot;" font-size="12px" font-style="normal" font-weight="normal" text-decoration="" line-height="14px" x="103" y="25">.</text><text fill="rgb(0, 0, 0)" stroke="none" font-family="&quot;Arial&quot;" font-size="12px" font-style="normal" font-weight="normal" text-decoration="" line-height="14px" x="106" y="25">190</text><text fill="rgb(0, 0, 0)" stroke="none" font-family="&quot;Arial&quot;" font-size="12px" font-style="normal" font-weight="normal" text-decoration="" line-height="14px" x="127" y="25">.</text><text fill="rgb(0, 0, 0)" stroke="none" font-family="&quot;Arial&quot;" font-size="12px" font-style="normal" font-weight="normal" text-decoration="" line-height="14px" x="130" y="25">1</text></g><g transform="translate(349,420) matrix(1,0,0,1,0,0) translate(-349,-420)"><g/></g><g transform="translate(349,420) matrix(1,0,0,1,0,0) translate(-349,-420)"><g/></g><g transform="translate(349,420) matrix(1,0,0,1,0,0) translate(-349,-420)"><g/><text fill="rgb(0, 0, 0)" stroke="none" font-family="&quot;Arial&quot;" font-size="12px" font-style="normal" font-weight="normal" text-decoration="" line-height="14px" x="10" y="39">Vlan</text><text fill="rgb(0, 0, 0)" stroke="none" font-family="&quot;Arial&quot;" font-size="12px" font-style="normal" font-weight="normal" text-decoration="" line-height="14px" x="38" y="39">191</text><text fill="rgb(0, 0, 0)" stroke="none" font-family="&quot;Arial&quot;" font-size="12px" font-style="normal" font-weight="normal" text-decoration="" line-height="14px" x="59" y="39">:</text><text fill="rgb(0, 0, 0)" stroke="none" font-family="&quot;Arial&quot;" font-size="12px" font-style="normal" font-weight="normal" text-decoration="" line-height="14px" x="65" y="39">172</text><text fill="rgb(0, 0, 0)" stroke="none" font-family="&quot;Arial&quot;" font-size="12px" font-style="normal" font-weight="normal" text-decoration="" line-height="14px" x="86" y="39">.</text><text fill="rgb(0, 0, 0)" stroke="none" font-family="&quot;Arial&quot;" font-size="12px" font-style="normal" font-weight="normal" text-decoration="" line-height="14px" x="89" y="39">16</text><text fill="rgb(0, 0, 0)" stroke="none" font-family="&quot;Arial&quot;" font-size="12px" font-style="normal" font-weight="normal" text-decoration="" line-height="14px" x="103" y="39">.</text><text fill="rgb(0, 0, 0)" stroke="none" font-family="&quot;Arial&quot;" font-size="12px" font-style="normal" font-weight="normal" text-decoration="" line-height="14px" x="106" y="39">191</text><text fill="rgb(0, 0, 0)" stroke="none" font-family="&quot;Arial&quot;" font-size="12px" font-style="normal" font-weight="normal" text-decoration="" line-height="14px" x="127" y="39">.</text><text fill="rgb(0, 0, 0)" stroke="none" font-family="&quot;Arial&quot;" font-size="12px" font-style="normal" font-weight="normal" text-decoration="" line-height="14px" x="130" y="39">1</text></g><g transform="translate(349,420) matrix(1,0,0,1,0,0) translate(-349,-420)"><g/></g><g transform="translate(349,420) matrix(1,0,0,1,0,0) translate(-349,-420)"><g/></g><g transform="translate(349,420) matrix(1,0,0,1,0,0) translate(-349,-420)"><g/><text fill="rgb(0, 0, 0)" stroke="none" font-family="&quot;Arial&quot;" font-size="12px" font-style="normal" font-weight="normal" text-decoration="" line-height="14px" x="10" y="53">Vlan</text><text fill="rgb(0, 0, 0)" stroke="none" font-family="&quot;Arial&quot;" font-size="12px" font-style="normal" font-weight="normal" text-decoration="" line-height="14px" x="38" y="53">192</text><text fill="rgb(0, 0, 0)" stroke="none" font-family="&quot;Arial&quot;" font-size="12px" font-style="normal" font-weight="normal" text-decoration="" line-height="14px" x="59" y="53">:</text><text fill="rgb(0, 0, 0)" stroke="none" font-family="&quot;Arial&quot;" font-size="12px" font-style="normal" font-weight="normal" text-decoration="" line-height="14px" x="65" y="53">172</text><text fill="rgb(0, 0, 0)" stroke="none" font-family="&quot;Arial&quot;" font-size="12px" font-style="normal" font-weight="normal" text-decoration="" line-height="14px" x="86" y="53">.</text><text fill="rgb(0, 0, 0)" stroke="none" font-family="&quot;Arial&quot;" font-size="12px" font-style="normal" font-weight="normal" text-decoration="" line-height="14px" x="89" y="53">16</text><text fill="rgb(0, 0, 0)" stroke="none" font-family="&quot;Arial&quot;" font-size="12px" font-style="normal" font-weight="normal" text-decoration="" line-height="14px" x="103" y="53">.</text><text fill="rgb(0, 0, 0)" stroke="none" font-family="&quot;Arial&quot;" font-size="12px" font-style="normal" font-weight="normal" text-decoration="" line-height="14px" x="106" y="53">192</text><text fill="rgb(0, 0, 0)" stroke="none" font-family="&quot;Arial&quot;" font-size="12px" font-style="normal" font-weight="normal" text-decoration="" line-height="14px" x="127" y="53">.</text><text fill="rgb(0, 0, 0)" stroke="none" font-family="&quot;Arial&quot;" font-size="12px" font-style="normal" font-weight="normal" text-decoration="" line-height="14px" x="130" y="53">1</text></g><g transform="translate(349,420) matrix(1,0,0,1,0,0) translate(-349,-420)"><g/></g><g transform="translate(349,420) matrix(1,0,0,1,0,0) translate(-349,-420)"><g/></g><g transform="translate(349,420) matrix(1,0,0,1,0,0) translate(-349,-420)"><g/><text fill="rgb(0, 0, 0)" stroke="none" font-family="&quot;Arial&quot;" font-size="12px" font-style="normal" font-weight="normal" text-decoration="" line-height="14px" x="10" y="67">Vlan</text><text fill="rgb(0, 0, 0)" stroke="none" font-family="&quot;Arial&quot;" font-size="12px" font-style="normal" font-weight="normal" text-decoration="" line-height="14px" x="38" y="67">199</text><text fill="rgb(0, 0, 0)" stroke="none" font-family="&quot;Arial&quot;" font-size="12px" font-style="normal" font-weight="normal" text-decoration="" line-height="14px" x="59" y="67">:</text><text fill="rgb(0, 0, 0)" stroke="none" font-family="&quot;Arial&quot;" font-size="12px" font-style="normal" font-weight="normal" text-decoration="" line-height="14px" x="65" y="67">172</text><text fill="rgb(0, 0, 0)" stroke="none" font-family="&quot;Arial&quot;" font-size="12px" font-style="normal" font-weight="normal" text-decoration="" line-height="14px" x="86" y="67">.</text><text fill="rgb(0, 0, 0)" stroke="none" font-family="&quot;Arial&quot;" font-size="12px" font-style="normal" font-weight="normal" text-decoration="" line-height="14px" x="89" y="67">16</text><text fill="rgb(0, 0, 0)" stroke="none" font-family="&quot;Arial&quot;" font-size="12px" font-style="normal" font-weight="normal" text-decoration="" line-height="14px" x="103" y="67">.</text><text fill="rgb(0, 0, 0)" stroke="none" font-family="&quot;Arial&quot;" font-size="12px" font-style="normal" font-weight="normal" text-decoration="" line-height="14px" x="106" y="67">199</text><text fill="rgb(0, 0, 0)" stroke="none" font-family="&quot;Arial&quot;" font-size="12px" font-style="normal" font-weight="normal" text-decoration="" line-height="14px" x="127" y="67">.</text><text fill="rgb(0, 0, 0)" stroke="none" font-family="&quot;Arial&quot;" font-size="12px" font-style="normal" font-weight="normal" text-decoration="" line-height="14px" x="130" y="67">1</text></g></g></g></svg>